<?xml version="1.0" encoding="UTF-8" standalone="no"?>
<svg
   xmlns:dc="http://purl.org/dc/elements/1.1/"
   xmlns:cc="http://creativecommons.org/ns#"
   xmlns:rdf="http://www.w3.org/1999/02/22-rdf-syntax-ns#"
   xmlns:svg="http://www.w3.org/2000/svg"
   xmlns="http://www.w3.org/2000/svg"
   xmlns:sodipodi="http://sodipodi.sourceforge.net/DTD/sodipodi-0.dtd"
   xmlns:inkscape="http://www.inkscape.org/namespaces/inkscape"
   version="1.1"
   width="71.829994cm"
   height="22.73cm"
   viewBox="0 0 2545.1593 805.39435"
   id="svg2"
   inkscape:version="0.91 r"
   sodipodi:docname="looper_box.svg"
   inkscape:label="Gravure">
  <g
     inkscape:groupmode="layer"
     id="layer5"
     inkscape:label="decoupe5mm"
     style="display:inline"
     transform="translate(-14.885191,-71.631298)">
    <path
       transform="translate(15.416688,72.162795)"
       style="fill:none;stroke:#ff0000;stroke-width:1.06299305"
       d="m 116.92923,198.42536 -58.464615,0 0,17.71655 -58.464615,0 0,-45.1772 17.71655,0 0,-45.17721 -17.71655,0 0,-35.433095 17.71655,0 0,-45.177203 L 0,45.177202 0,0 l 58.464615,0 0,17.71655 58.464615,0 0,-17.71655 35.4331,0 0,17.71655 35.4331,0 0,-17.71655 35.4331,0 0,17.71655 35.4331,0 0,-17.71655 35.4331,0 0,17.71655 35.4331,0 0,-17.71655 35.4331,0 0,17.71655 35.4331,0 0,-17.71655 35.4331,0 0,17.71655 35.4331,0 0,-17.71655 35.4331,0 0,17.71655 35.4331,0 0,-17.71655 35.4331,0 0,17.71655 35.4331,0 0,-17.71655 35.4331,0 0,17.71655 35.4331,0 0,-17.71655 35.4331,0 0,17.71655 35.4331,0 0,-17.71655 35.4331,0 0,17.71655 35.4331,0 0,-17.71655 35.4331,0 0,17.71655 58.46461,0 0,-17.71655 58.46462,0 0,45.177202 -17.71655,0 0,45.177203 17.71655,0 0,35.433095 -17.71655,0 0,45.17721 17.71655,0 0,45.1772 -58.46462,0 0,-17.71655 -58.46461,0 0,17.71655 -35.4331,0 0,-17.71655 -35.4331,0 0,17.71655 -35.4331,0 0,-17.71655 -35.4331,0 0,17.71655 -35.4331,0 0,-17.71655 -35.4331,0 0,17.71655 -35.4331,0 0,-17.71655 -35.4331,0 0,17.71655 -35.4331,0 0,-17.71655 -35.4331,0 0,17.71655 -35.4331,0 0,-17.71655 -35.4331,0 0,17.71655 -35.4331,0 0,-17.71655 -35.4331,0 0,17.71655 -35.4331,0 0,-17.71655 -35.4331,0 0,17.71655 -35.4331,0 0,-17.71655 -35.4331,0 0,17.71655 -35.4331,0 0,-17.71655 -35.4331,0 0,17.71655 -35.4331,0 z"
       id="polygon6-3"
       inkscape:connector-curvature="0" />
    <path
       transform="translate(993.37014,72.162795)"
       style="fill:none;stroke:#ff0000;stroke-width:1.06299305"
       d="m 116.92923,198.42536 -58.464615,0 0,17.71655 -58.464615,0 0,-45.1772 17.71655,0 0,-45.17721 -17.71655,0 0,-35.433095 17.71655,0 0,-45.177203 L 0,45.177202 0,0 l 58.464615,0 0,17.71655 58.464615,0 0,-17.71655 35.4331,0 0,17.71655 35.4331,0 0,-17.71655 35.4331,0 0,17.71655 35.4331,0 0,-17.71655 35.4331,0 0,17.71655 35.4331,0 0,-17.71655 35.4331,0 0,17.71655 35.4331,0 0,-17.71655 35.4331,0 0,17.71655 35.4331,0 0,-17.71655 35.4331,0 0,17.71655 35.4331,0 0,-17.71655 35.4331,0 0,17.71655 35.4331,0 0,-17.71655 35.4331,0 0,17.71655 35.4331,0 0,-17.71655 35.4331,0 0,17.71655 35.4331,0 0,-17.71655 35.4331,0 0,17.71655 35.4331,0 0,-17.71655 35.4331,0 0,17.71655 58.46461,0 0,-17.71655 58.46462,0 0,45.177202 -17.71655,0 0,45.177203 17.71655,0 0,35.433095 -17.71655,0 0,45.17721 17.71655,0 0,45.1772 -58.46462,0 0,-17.71655 -58.46461,0 0,17.71655 -35.4331,0 0,-17.71655 -35.4331,0 0,17.71655 -35.4331,0 0,-17.71655 -35.4331,0 0,17.71655 -35.4331,0 0,-17.71655 -35.4331,0 0,17.71655 -35.4331,0 0,-17.71655 -35.4331,0 0,17.71655 -35.4331,0 0,-17.71655 -35.4331,0 0,17.71655 -35.4331,0 0,-17.71655 -35.4331,0 0,17.71655 -35.4331,0 0,-17.71655 -35.4331,0 0,17.71655 -35.4331,0 0,-17.71655 -35.4331,0 0,17.71655 -35.4331,0 0,-17.71655 -35.4331,0 0,17.71655 -35.4331,0 0,-17.71655 -35.4331,0 0,17.71655 -35.4331,0 z"
       id="polygon10-5"
       inkscape:connector-curvature="0" />
    <path
       transform="translate(1971.3237,72.162795)"
       style="fill:none;stroke:#ff0000;stroke-width:1.06299305"
       d="m 538.58312,0 31.88979,0 0,45.177202 17.71655,0 0,45.177203 -17.71655,0 0,35.433095 17.71655,0 0,45.17721 -17.71655,0 0,45.1772 -31.88979,0 0,-17.71655 -49.60634,0 0,17.71655 -35.4331,0 0,-17.71655 -35.4331,0 0,17.71655 -35.4331,0 0,-17.71655 -35.4331,0 0,17.71655 -35.4331,0 0,-17.71655 -35.4331,0 0,17.71655 -35.4331,0 0,-17.71655 -35.4331,0 0,17.71655 -35.4331,0 0,-17.71655 -35.4331,0 0,17.71655 -35.4331,0 0,-17.71655 -49.60634,0 0,17.71655 -31.88979,0 0,-45.1772 -17.71655,0 0,-45.17721 17.71655,0 0,-35.433095 -17.71655,0 0,-45.177203 17.71655,0 0,-45.177202 31.88979,0 0,17.71655 49.60634,0 0,-17.71655 35.4331,0 0,17.71655 35.4331,0 0,-17.71655 35.4331,0 0,17.71655 35.4331,0 0,-17.71655 35.4331,0 0,17.71655 35.4331,0 0,-17.71655 35.4331,0 0,17.71655 35.4331,0 0,-17.71655 35.4331,0 0,17.71655 35.4331,0 0,-17.71655 35.4331,0 0,17.71655 49.60634,0 z"
       id="polygon14-7"
       inkscape:connector-curvature="0" />
    <path
       transform="translate(1971.3237,288.3047)"
       style="fill:none;stroke:#ff0000;stroke-width:1.06299305"
       d="m 538.58312,0 31.88979,0 0,45.177202 17.71655,0 0,45.177203 -17.71655,0 0,35.433095 17.71655,0 0,45.17721 -17.71655,0 0,45.1772 -31.88979,0 0,-17.71655 -49.60634,0 0,17.71655 -35.4331,0 0,-17.71655 -35.4331,0 0,17.71655 -35.4331,0 0,-17.71655 -35.4331,0 0,17.71655 -35.4331,0 0,-17.71655 -35.4331,0 0,17.71655 -35.4331,0 0,-17.71655 -35.4331,0 0,17.71655 -35.4331,0 0,-17.71655 -35.4331,0 0,17.71655 -35.4331,0 0,-17.71655 -49.60634,0 0,17.71655 -31.88979,0 0,-45.1772 -17.71655,0 0,-45.17721 17.71655,0 0,-35.433095 -17.71655,0 0,-45.177203 17.71655,0 0,-45.177202 31.88979,0 0,17.71655 49.60634,0 0,-17.71655 35.4331,0 0,17.71655 35.4331,0 0,-17.71655 35.4331,0 0,17.71655 35.4331,0 0,-17.71655 35.4331,0 0,17.71655 35.4331,0 0,-17.71655 35.4331,0 0,17.71655 35.4331,0 0,-17.71655 35.4331,0 0,17.71655 35.4331,0 0,-17.71655 35.4331,0 0,17.71655 49.60634,0 z"
       id="polygon18-2"
       inkscape:connector-curvature="0" />
    <path
       transform="translate(15.416688,288.3047)"
       style="fill:none;stroke:#ff0000;stroke-width:1.06299305"
       d="m 471.26023,588.18946 -35.4331,0 0,-17.71655 -35.4331,0 0,17.71655 -35.4331,0 0,-17.71655 -35.4331,0 0,17.71655 -35.4331,0 0,-17.71655 -35.4331,0 0,17.71655 -35.4331,0 0,-17.71655 -35.4331,0 0,17.71655 -35.4331,0 0,-17.71655 -35.4331,0 0,17.71655 -58.464615,0 0,-17.71655 -40.748065,0 0,-31.88979 -17.71655,0 0,-49.60634 17.71655,0 0,-35.4331 -17.71655,0 0,-35.4331 17.71655,0 0,-35.4331 -17.71655,0 0,-35.4331 17.71655,0 0,-35.4331 -17.71655,0 0,-35.4331 17.71655,0 0,-35.4331 -17.71655,0 0,-35.4331 17.71655,0 0,-35.4331 -17.71655,0 0,-35.4331 17.71655,0 0,-35.4331 -17.71655,0 0,-49.60634 17.71655,0 0,-31.88979 40.748065,0 0,-17.71655 58.464615,0 0,17.71655 35.4331,0 0,-17.71655 35.4331,0 0,17.71655 35.4331,0 0,-17.71655 35.4331,0 0,17.71655 35.4331,0 0,-17.71655 35.4331,0 0,17.71655 35.4331,0 0,-17.71655 35.4331,0 0,17.71655 35.4331,0 0,-17.71655 35.4331,0 0,17.71655 35.4331,0 0,-17.71655 35.4331,0 0,17.71655 35.4331,0 0,-17.71655 35.4331,0 0,17.71655 35.4331,0 0,-17.71655 35.4331,0 0,17.71655 35.4331,0 0,-17.71655 35.4331,0 0,17.71655 35.4331,0 0,-17.71655 35.4331,0 0,17.71655 35.4331,0 0,-17.71655 58.46461,0 0,17.71655 40.74807,0 0,31.88979 17.71655,0 0,49.60634 -17.71655,0 0,35.4331 17.71655,0 0,35.4331 -17.71655,0 0,35.4331 17.71655,0 0,35.4331 -17.71655,0 0,35.4331 17.71655,0 0,35.4331 -17.71655,0 0,35.4331 17.71655,0 0,35.4331 -17.71655,0 0,35.4331 17.71655,0 0,35.4331 -17.71655,0 0,35.4331 17.71655,0 0,49.60634 -17.71655,0 0,31.88979 -40.74807,0 0,17.71655 -58.46461,0 0,-17.71655 -35.4331,0 0,17.71655 -35.4331,0 0,-17.71655 -35.4331,0 0,17.71655 -35.4331,0 0,-17.71655 -35.4331,0 0,17.71655 -35.4331,0 0,-17.71655 -35.4331,0 0,17.71655 -35.4331,0 0,-17.71655 -35.4331,0 0,17.71655 -35.4331,0 0,-17.71655 -35.4331,0 z"
       id="polygon22-2"
       inkscape:connector-curvature="0" />
    <path
       transform="translate(993.37014,288.30422)"
       style="fill:none;stroke:#ff0000;stroke-width:1.06299305"
       d="m 329.52783,570.47291 0,17.71655 -35.4331,0 0,-17.71655 -35.4331,0 0,17.71655 -35.4331,0 0,-17.71655 -35.4331,0 0,17.71655 -35.4331,0 0,-17.71655 -35.4331,0 0,17.71655 -58.464615,0 0,-17.71655 -40.748065,0 0,-31.88979 -17.71655,0 0,-49.60634 17.71655,0 0,-35.4331 -17.71655,0 0,-35.4331 17.71655,0 0,-35.4331 -17.71655,0 0,-35.4331 17.71655,0 0,-35.4331 -17.71655,0 0,-35.4331 17.71655,0 0,-35.4331 -17.71655,0 0,-35.4331 17.71655,0 0,-35.4331 -17.71655,0 0,-35.4331 17.71655,0 0,-35.4331 -17.71655,0 0,-49.60634 17.71655,0 0,-31.88979 40.748065,0 0,-17.71655 58.464615,0 0,17.71655 35.4331,0 0,-17.71655 35.4331,0 0,17.71655 35.4331,0 0,-17.71655 35.4331,0 0,17.71655 35.4331,0 0,-17.71655 35.4331,0 0,17.71655 35.4331,0 0,-17.71655 35.4331,0 0,17.71655 35.4331,0 0,-17.71655 35.4331,0 0,17.71655 35.4331,0 0,-17.71655 35.4331,0 0,17.71655 35.4331,0 0,-17.71655 35.4331,0 0,17.71655 35.4331,0 0,-17.71655 35.4331,0 0,17.71655 35.4331,0 0,-17.71655 35.4331,0 0,17.71655 35.4331,0 0,-17.71655 35.4331,0 0,17.71655 35.4331,0 0,-17.71655 58.46461,0 0,17.71655 40.74807,0 0,31.88979 17.71655,0 0,49.60634 -17.71655,0 0,35.4331 17.71655,0 0,35.4331 -17.71655,0 0,35.4331 17.71655,0 0,35.4331 -17.71655,0 0,35.4331 17.71655,0 0,35.4331 -17.71655,0 0,35.4331 17.71655,0 0,35.4331 -17.71655,0 0,35.4331 17.71655,0 0,35.4331 -17.71655,0 0,35.4331 17.71655,0 0,49.60634 -17.71655,0 0,31.88979 -40.74807,0 0,17.71655 -58.46461,0 0,-17.71655 -35.4331,0 0,17.71655 -35.4331,0 0,-17.71655 -35.4331,0 0,17.71655 -35.4331,0 0,-17.71655 -35.4331,0 0,17.71655 -35.4331,0 0,-17.71655 -35.4331,0 0,17.71655 -35.4331,0 0,-17.71655 -35.4331,0 0,17.71655 -35.4331,0 0,-17.71655 -35.4331,0 0,17.71655 -35.4331,0 0,-17.71655 -35.4331,0 0,17.71655 -35.4331,0 0,-17.71655 z"
       id="polygon26-5"
       inkscape:connector-curvature="0" />
  </g>
  <sodipodi:namedview
     pagecolor="#ffffff"
     bordercolor="#666666"
     borderopacity="1"
     objecttolerance="10"
     gridtolerance="10"
     guidetolerance="10"
     inkscape:pageopacity="0"
     inkscape:pageshadow="2"
     inkscape:window-width="1366"
     inkscape:window-height="717"
     id="namedview28"
     showgrid="true"
     inkscape:zoom="1.4542622"
     inkscape:cx="381.81411"
     inkscape:cy="385.24591"
     inkscape:window-x="0"
     inkscape:window-y="0"
     inkscape:window-maximized="1"
     inkscape:current-layer="layer2"
     showguides="true"
     inkscape:guide-bbox="true"
     units="cm"
     fit-margin-top="0"
     fit-margin-left="0"
     fit-margin-right="0"
     fit-margin-bottom="0">
    <inkscape:grid
       id="grid3362"
       type="xygrid"
       originx="-14.885191"
       originy="-14.825473" />
  </sodipodi:namedview>
  <metadata
     id="metadata32">
    <rdf:RDF>
      <cc:Work
         rdf:about="">
        <dc:format>image/svg+xml</dc:format>
        <dc:type
           rdf:resource="http://purl.org/dc/dcmitype/StillImage" />
        <dc:title></dc:title>
      </cc:Work>
    </rdf:RDF>
  </metadata>
  <defs
     id="defs30" />
  <!-- Front-->
  <!-- Back-->
  <!-- Left-->
  <!-- Right-->
  <!-- Top-->
  <!-- Bottom-->
  <g
     style="display:inline"
     inkscape:label="decoupe"
     id="layer1"
     inkscape:groupmode="layer"
     transform="translate(-14.885191,-71.631298)">
    <path
       inkscape:connector-curvature="0"
       id="rect4241"
       d="m 628.31434,89.813084 54.92126,0 0,37.204726 -54.92126,0 z"
       style="fill:#ff0000;fill-opacity:0;stroke:#000000;stroke-width:1;stroke-miterlimit:4;stroke-dasharray:none;stroke-opacity:1" />
    <path
       inkscape:connector-curvature="0"
       id="path4243"
       d="m 2195.9762,391.70747 a 17.198622,17.198624 0 0 1 -17.1987,17.19862 17.198622,17.198624 0 0 1 -17.1986,-17.19862 17.198622,17.198624 0 0 1 17.1986,-17.19863 17.198622,17.198624 0 0 1 17.1987,17.19863 z"
       style="fill:#ff0000;fill-opacity:0;stroke:#000000;stroke-width:1.0358541;stroke-miterlimit:4;stroke-dasharray:none;stroke-opacity:1" />
    <path
       inkscape:connector-curvature="0"
       id="rect4201"
       d="m 169.50377,679.80994 23.79945,0 0,70.86248 -23.79945,0 z"
       style="fill:#ff0000;fill-opacity:0;stroke:#000000;stroke-width:1.00372124;stroke-miterlimit:4;stroke-dasharray:none;stroke-opacity:1" />
    <path
       inkscape:connector-curvature="0"
       id="path4148-2-6"
       d="m 136.96979,574.51379 a 8.3849964,8.3849897 0 0 1 -8.38499,8.38499 8.3849964,8.3849897 0 0 1 -8.385,-8.38499 8.3849964,8.3849897 0 0 1 8.385,-8.38499 8.3849964,8.3849897 0 0 1 8.38499,8.38499 z"
       style="fill:#ff0000;fill-opacity:0;stroke:#000000;stroke-width:0.94657016;stroke-miterlimit:4;stroke-dasharray:none;stroke-opacity:1" />
    <path
       inkscape:connector-curvature="0"
       id="path4148-2-6-0"
       d="m 241.82197,573.22937 a 8.3850031,8.3849964 0 0 1 -8.385,8.385 8.3850031,8.3849964 0 0 1 -8.385,-8.385 8.3850031,8.3849964 0 0 1 8.385,-8.385 8.3850031,8.3849964 0 0 1 8.385,8.385 z"
       style="fill:#ff0000;fill-opacity:0;stroke:#000000;stroke-width:0.94657016;stroke-miterlimit:4;stroke-dasharray:none;stroke-opacity:1" />
    <path
       inkscape:connector-curvature="0"
       id="path4148-2-6-5"
       d="m 348.7928,573.47247 a 8.3850031,8.3849964 0 0 1 -8.385,8.385 8.3850031,8.3849964 0 0 1 -8.38501,-8.385 8.3850031,8.3849964 0 0 1 8.38501,-8.38499 8.3850031,8.3849964 0 0 1 8.385,8.38499 z"
       style="fill:#ff0000;fill-opacity:0;stroke:#000000;stroke-width:0.94657016;stroke-miterlimit:4;stroke-dasharray:none;stroke-opacity:1" />
    <path
       inkscape:connector-curvature="0"
       id="path4148-2-6-4"
       d="m 455.03428,573.47247 a 8.3850031,8.3849964 0 0 1 -8.385,8.385 8.3850031,8.3849964 0 0 1 -8.385,-8.385 8.3850031,8.3849964 0 0 1 8.385,-8.38499 8.3850031,8.3849964 0 0 1 8.385,8.38499 z"
       style="fill:#ff0000;fill-opacity:0;stroke:#000000;stroke-width:0.94657016;stroke-miterlimit:4;stroke-dasharray:none;stroke-opacity:1" />
    <path
       inkscape:connector-curvature="0"
       id="path4148-2-6-1"
       d="m 561.27574,573.47247 a 8.3850031,8.3849964 0 0 1 -8.385,8.385 8.3850031,8.3849964 0 0 1 -8.38501,-8.385 8.3850031,8.3849964 0 0 1 8.38501,-8.38499 8.3850031,8.3849964 0 0 1 8.385,8.38499 z"
       style="fill:#ff0000;fill-opacity:0;stroke:#000000;stroke-width:0.94657016;stroke-miterlimit:4;stroke-dasharray:none;stroke-opacity:1" />
    <path
       inkscape:connector-curvature="0"
       id="path4148-2-6-54"
       d="m 668.00346,573.95868 a 8.3850031,8.3849964 0 0 1 -8.385,8.385 8.3850031,8.3849964 0 0 1 -8.385,-8.385 8.3850031,8.3849964 0 0 1 8.385,-8.385 8.3850031,8.3849964 0 0 1 8.385,8.385 z"
       style="fill:#ff0000;fill-opacity:0;stroke:#000000;stroke-width:0.94657016;stroke-miterlimit:4;stroke-dasharray:none;stroke-opacity:1" />
    <path
       inkscape:connector-curvature="0"
       id="path4148-2-6-9"
       d="m 774.22154,573.47247 a 8.3850031,8.3849964 0 0 1 -8.385,8.385 8.3850031,8.3849964 0 0 1 -8.38501,-8.385 8.3850031,8.3849964 0 0 1 8.38501,-8.38499 8.3850031,8.3849964 0 0 1 8.385,8.38499 z"
       style="fill:#ff0000;fill-opacity:0;stroke:#000000;stroke-width:0.94657016;stroke-miterlimit:4;stroke-dasharray:none;stroke-opacity:1" />
    <path
       inkscape:connector-curvature="0"
       id="path4148-2-6-47"
       d="m 880.24327,573.47253 a 8.3850031,8.3849964 0 0 1 -8.385,8.385 8.3850031,8.3849964 0 0 1 -8.38501,-8.385 8.3850031,8.3849964 0 0 1 8.38501,-8.38499 8.3850031,8.3849964 0 0 1 8.385,8.38499 z"
       style="fill:#ff0000;fill-opacity:0;stroke:#000000;stroke-width:0.94657016;stroke-miterlimit:4;stroke-dasharray:none;stroke-opacity:1" />
    <path
       inkscape:connector-curvature="0"
       id="rect4201-7"
       d="m 381.62017,679.43176 23.79946,0 0,70.86255 -23.79946,0 z"
       style="fill:#ff0000;fill-opacity:0;stroke:#000000;stroke-width:1.00372124;stroke-miterlimit:4;stroke-dasharray:none;stroke-opacity:1" />
    <path
       inkscape:connector-curvature="0"
       id="rect4201-1"
       d="m 594.71441,679.91803 23.79946,0 0,70.86255 -23.79946,0 z"
       style="fill:#ff0000;fill-opacity:0;stroke:#000000;stroke-width:1.00372124;stroke-miterlimit:4;stroke-dasharray:none;stroke-opacity:1" />
    <path
       inkscape:connector-curvature="0"
       id="rect4201-2"
       d="m 806.47313,680.3927 23.79947,0 0,70.86255 -23.79947,0 z"
       style="fill:#ff0000;fill-opacity:0;stroke:#000000;stroke-width:1.00372124;stroke-miterlimit:4;stroke-dasharray:none;stroke-opacity:1" />
  </g>
  <g
     style="display:inline"
     inkscape:label="Gravure"
     id="layer2"
     inkscape:groupmode="layer"
     transform="translate(-14.885191,-71.631298)">
    <path
       id="rect4245"
       d="m 142.8127,519.80359 76.45392,0 c 37.71208,0 68.07234,30.36026 68.07234,68.07234 l 0,182.75324 c 0,37.71207 -30.36026,68.07234 -68.07234,68.07234 l -76.45392,0 c -37.71207,0 -68.07234,-30.36027 -68.07234,-68.07234 l 0,-182.75324 c 0,-37.71208 30.36027,-68.07234 68.07234,-68.07234 z"
       style="fill:none;fill-opacity:0;stroke:#000000;stroke-width:0.70866197;stroke-miterlimit:4;stroke-dasharray:none;stroke-opacity:1"
       inkscape:connector-curvature="0" />
    <path
       id="rect4247"
       d="m 355.41134,519.80359 76.45388,0 c 37.71209,0 68.07236,30.36027 68.07236,68.07236 l 0,182.7532 c 0,37.71209 -30.36027,68.07236 -68.07236,68.07236 l -76.45388,0 c -37.71209,0 -68.07236,-30.36027 -68.07236,-68.07236 l 0,-182.7532 c 0,-37.71209 30.36027,-68.07236 68.07236,-68.07236 z"
       style="fill:none;fill-opacity:0;stroke:#000000;stroke-width:0.70866197;stroke-miterlimit:4;stroke-dasharray:none;stroke-opacity:1"
       inkscape:connector-curvature="0" />
    <path
       id="rect4249"
       d="m 568.00998,519.80359 76.45369,0 c 37.71214,0 68.07245,30.36031 68.07245,68.07246 l 0,182.753 c 0,37.71214 -30.36031,68.07246 -68.07245,68.07246 l -76.45369,0 c -37.71214,0 -68.07246,-30.36032 -68.07246,-68.07246 l 0,-182.753 c 0,-37.71215 30.36032,-68.07246 68.07246,-68.07246 z"
       style="fill:none;fill-opacity:0;stroke:#000000;stroke-width:0.70866197;stroke-miterlimit:4;stroke-dasharray:none;stroke-opacity:1"
       inkscape:connector-curvature="0" />
    <path
       id="rect4251"
       d="m 780.60871,519.80359 76.45349,0 c 37.7122,0 68.07256,30.36036 68.07256,68.07255 l 0,182.75281 c 0,37.7122 -30.36036,68.07256 -68.07256,68.07256 l -76.45349,0 c -37.7122,0 -68.07256,-30.36036 -68.07256,-68.07256 l 0,-182.75281 c 0,-37.71219 30.36036,-68.07255 68.07256,-68.07255 z"
       style="fill:none;fill-opacity:0;stroke:#000000;stroke-width:0.70866197;stroke-miterlimit:4;stroke-dasharray:none;stroke-opacity:1"
       inkscape:connector-curvature="0" />
    <path
       d="m 87.31751,505.77392 q 0,-0.475 0.125,-1.15 0.15,-0.7 0.575,-1.625 0.425,-0.925 1.05001,-1.675 0.625,-0.75001 1.75,-1.27501 1.125,-0.55 2.55,-0.55 2.525,0 4.325,1.72501 l 0,-0.72501 q 0,-0.675 0.525,-0.675 0.5,0 0.5,0.675 l 0,2.80001 q 0,0.675 -0.525,0.675 -0.45,0 -0.5,-0.6 -0.075,-1.15 -1.375,-2 -1.275,-0.85001 -2.95,-0.85001 -2.075,0 -3.55,1.60001 -1.47501,1.575 -1.47501,3.8 l 0,1.775 q 0,2.25 1.62501,3.925 1.625,1.65001 3.825,1.65001 1.3,0 2.325,-0.52501 1.025,-0.525 2.025,-1.725 0.225,-0.25 0.45,-0.25 0.5,0 0.5,0.475 0,0.225 -0.4,0.7 -0.4,0.475 -1.05,1.02501 -0.65,0.525 -1.7,0.925 -1.05,0.4 -2.15,0.4 -2.55,0 -4.525,-1.95001 -1.95001,-1.975 -1.95001,-4.5 l 0,-2.075 z"
       style="font-style:normal;font-variant:normal;font-weight:normal;font-stretch:normal;font-size:medium;line-height:125%;font-family:FreeMono;-inkscape-font-specification:FreeMono;letter-spacing:0px;word-spacing:0px;fill:none;fill-opacity:1;stroke:#000000;stroke-width:0.70866197;stroke-linecap:butt;stroke-linejoin:miter;stroke-miterlimit:4;stroke-dasharray:none;stroke-opacity:1"
       id="path4356"
       inkscape:connector-curvature="0" />
    <path
       d="m 108.23277,503.12392 q 2.4,0 4.05,1.65 1.65,1.625 1.65,4 0,2.3 -1.675,3.925 -1.675,1.60001 -4.025,1.60001 -2.37501,0 -4.05001,-1.62501 -1.65,-1.625 -1.65,-3.975 0,-2.3 1.65,-3.925 1.675,-1.65 4.05001,-1.65 z m 0,1.025 q -1.95001,0 -3.32501,1.325 -1.35,1.325 -1.35,3.225 0,1.9 1.35,3.25 1.375,1.32501 3.32501,1.32501 1.925,0 3.3,-1.32501 1.375,-1.325 1.375,-3.175 0,-1.975 -1.35,-3.3 -1.35,-1.325 -3.325,-1.325 z"
       style="font-style:normal;font-variant:normal;font-weight:normal;font-stretch:normal;font-size:medium;line-height:125%;font-family:FreeMono;-inkscape-font-specification:FreeMono;letter-spacing:0px;word-spacing:0px;fill:none;fill-opacity:1;stroke:#000000;stroke-width:0.70866197;stroke-linecap:butt;stroke-linejoin:miter;stroke-miterlimit:4;stroke-dasharray:none;stroke-opacity:1"
       id="path4358"
       inkscape:connector-curvature="0" />
    <path
       d="m 118.52301,503.47392 0,1.3 q 0.625,-0.9 1.225,-1.275 0.6,-0.375 1.4,-0.375 1.6,0 2.425,1.775 1.375,-1.775 2.82501,-1.775 1.075,0 1.85,0.8 0.775,0.8 0.775,1.9 l 0,7.05 0.85,0 q 0.675,0 0.675,0.50001 0,0.525 -0.675,0.525 l -1.85,0 0,-7.97501 q 0,-0.7 -0.5,-1.225 -0.5,-0.55 -1.15,-0.55 -1.25001,0 -2.60001,2.05 l 0,6.675 0.85,0 q 0.675,0 0.675,0.50001 0,0.525 -0.675,0.525 l -1.85,0 0,-7.90001 q 0,-0.725 -0.5,-1.275 -0.475,-0.575 -1.125,-0.575 -1.25,0 -2.625,2.05 l 0,6.675 0.85,0 q 0.675,0 0.675,0.50001 0,0.525 -0.675,0.525 l -2.725,0 q -0.65,0 -0.65,-0.525 0,-0.50001 0.675,-0.50001 l 0.85,0 0,-8.375 -0.85,0 q -0.675,0 -0.675,-0.525 0,-0.5 0.675,-0.5 l 1.85,0 z"
       style="font-style:normal;font-variant:normal;font-weight:normal;font-stretch:normal;font-size:medium;line-height:125%;font-family:FreeMono;-inkscape-font-specification:FreeMono;letter-spacing:0px;word-spacing:0px;fill:none;fill-opacity:1;stroke:#000000;stroke-width:0.70866197;stroke-linecap:butt;stroke-linejoin:miter;stroke-miterlimit:4;stroke-dasharray:none;stroke-opacity:1"
       id="path4360"
       inkscape:connector-curvature="0" />
    <path
       d="m 133.51326,503.47392 0,1.3 q 0.625,-0.9 1.225,-1.275 0.6,-0.375 1.4,-0.375 1.6,0 2.425,1.775 1.375,-1.775 2.825,-1.775 1.075,0 1.85,0.8 0.77501,0.8 0.77501,1.9 l 0,7.05 0.85,0 q 0.675,0 0.675,0.50001 0,0.525 -0.675,0.525 l -1.85001,0 0,-7.97501 q 0,-0.7 -0.5,-1.225 -0.5,-0.55 -1.15,-0.55 -1.25,0 -2.6,2.05 l 0,6.675 0.85,0 q 0.675,0 0.675,0.50001 0,0.525 -0.675,0.525 l -1.85,0 0,-7.90001 q 0,-0.725 -0.5,-1.275 -0.475,-0.575 -1.125,-0.575 -1.25,0 -2.625,2.05 l 0,6.675 0.85,0 q 0.675,0 0.675,0.50001 0,0.525 -0.675,0.525 l -2.72501,0 q -0.65,0 -0.65,-0.525 0,-0.50001 0.675,-0.50001 l 0.85001,0 0,-8.375 -0.85001,0 q -0.675,0 -0.675,-0.525 0,-0.5 0.675,-0.5 l 1.85001,0 z"
       style="font-style:normal;font-variant:normal;font-weight:normal;font-stretch:normal;font-size:medium;line-height:125%;font-family:FreeMono;-inkscape-font-specification:FreeMono;letter-spacing:0px;word-spacing:0px;fill:none;fill-opacity:1;stroke:#000000;stroke-width:0.70866197;stroke-linecap:butt;stroke-linejoin:miter;stroke-miterlimit:4;stroke-dasharray:none;stroke-opacity:1"
       id="path4362"
       inkscape:connector-curvature="0" />
    <path
       d="m 158.70351,508.92392 -10.40001,0 q 0.275,1.975 1.65,3.175 1.375,1.17501 3.40001,1.17501 1.175,0 2.4,-0.37501 1.225,-0.375 1.975,-0.975 0.25,-0.175 0.4,-0.175 0.2,0 0.325,0.15 0.15,0.15 0.15,0.35 0,0.65 -1.8,1.35001 -1.775,0.7 -3.475,0.7 -2.52501,0 -4.30001,-1.70001 -1.75,-1.7 -1.75,-4.125 0,-2.275 1.65,-3.8 1.65,-1.55 4.05001,-1.55 2.525,0 4.125,1.6 1.6,1.575 1.6,4.2 z m -10.40001,-1.025 9.35001,0 q -0.3,-1.7 -1.575,-2.725 -1.275,-1.025 -3.1,-1.025 -1.82501,0 -3.07501,1.025 -1.25,1 -1.6,2.725 z"
       style="font-style:normal;font-variant:normal;font-weight:normal;font-stretch:normal;font-size:medium;line-height:125%;font-family:FreeMono;-inkscape-font-specification:FreeMono;letter-spacing:0px;word-spacing:0px;fill:none;fill-opacity:1;stroke:#000000;stroke-width:0.70866197;stroke-linecap:butt;stroke-linejoin:miter;stroke-miterlimit:4;stroke-dasharray:none;stroke-opacity:1"
       id="path4364"
       inkscape:connector-curvature="0" />
    <path
       d="m 168.66875,504.14892 q -0.45,0 -0.875,0.1 -0.4,0.075 -0.775,0.275 -0.35,0.175 -0.6,0.35 -0.25,0.15 -0.55,0.45 -0.275,0.3 -0.4,0.45 -0.1,0.125 -0.35,0.45 -0.225,0.3 -0.25,0.325 l 0,6.325 1.125,0 q 0.675,0 0.675,0.50001 0,0.525 -0.675,0.525 l -3.275,0 q -0.7,0 -0.7,-0.525 0,-0.50001 0.7,-0.50001 l 1.125,0 0,-8.375 -0.85,0 q -0.675,0 -0.675,-0.525 0,-0.5 0.675,-0.5 l 1.875,0 0,1.725 q 1.075,-1.2 1.9,-1.625 0.825,-0.45 2,-0.45 1.675,0 2.8,0.975 1.12501,0.975 1.12501,2.425 l 0,6.35 0.85,0 q 0.675,0 0.675,0.50001 0,0.525 -0.675,0.525 l -2.72501,0 q -0.675,0 -0.675,-0.525 0,-0.50001 0.675,-0.50001 l 0.85,0 0,-6.175 q 0,-1.075 -0.825,-1.8 -0.8,-0.75 -2.175,-0.75 z"
       style="font-style:normal;font-variant:normal;font-weight:normal;font-stretch:normal;font-size:medium;line-height:125%;font-family:FreeMono;-inkscape-font-specification:FreeMono;letter-spacing:0px;word-spacing:0px;fill:none;fill-opacity:1;stroke:#000000;stroke-width:0.70866197;stroke-linecap:butt;stroke-linejoin:miter;stroke-miterlimit:4;stroke-dasharray:none;stroke-opacity:1"
       id="path4366"
       inkscape:connector-curvature="0" />
    <path
       d="m 189.05901,511.69892 q 0,0.225 -0.425,0.65 -0.425,0.4 -1.125,0.85001 -0.67501,0.45 -1.80001,0.775 -1.125,0.325 -2.3,0.325 -2.45,0 -4.05,-1.55001 -1.575,-1.55 -1.575,-3.95 0,-2.475 1.625,-4.075 1.625,-1.6 4.125,-1.6 2.325,0 3.90001,1.375 l 0,-0.325 q 0,-0.7 0.525,-0.7 0.5,0 0.5,0.7 l 0,2.275 q 0,0.675 -0.5,0.675 -0.45,0 -0.525,-0.6 -0.075,-1 -1.25001,-1.675 -1.15,-0.7 -2.725,-0.7 -2.075,0 -3.375,1.3 -1.275,1.275 -1.275,3.325 0,1.975 1.3,3.25 1.3,1.25001 3.35,1.25001 2.725,0 4.67501,-1.80001 0.25,-0.25 0.45,-0.25 0.2,0 0.325,0.15 0.15,0.125 0.15,0.325 z"
       style="font-style:normal;font-variant:normal;font-weight:normal;font-stretch:normal;font-size:medium;line-height:125%;font-family:FreeMono;-inkscape-font-specification:FreeMono;letter-spacing:0px;word-spacing:0px;fill:none;fill-opacity:1;stroke:#000000;stroke-width:0.70866197;stroke-linecap:butt;stroke-linejoin:miter;stroke-miterlimit:4;stroke-dasharray:none;stroke-opacity:1"
       id="path4368"
       inkscape:connector-curvature="0" />
    <path
       d="m 203.67425,508.92392 -10.40001,0 q 0.275,1.975 1.65,3.175 1.375,1.17501 3.4,1.17501 1.175,0 2.40001,-0.37501 1.225,-0.375 1.975,-0.975 0.25,-0.175 0.4,-0.175 0.2,0 0.325,0.15 0.15,0.15 0.15,0.35 0,0.65 -1.8,1.35001 -1.775,0.7 -3.47501,0.7 -2.525,0 -4.3,-1.70001 -1.75,-1.7 -1.75,-4.125 0,-2.275 1.65,-3.8 1.65,-1.55 4.05,-1.55 2.52501,0 4.12501,1.6 1.6,1.575 1.6,4.2 z m -10.40001,-1.025 9.35001,0 q -0.3,-1.7 -1.575,-2.725 -1.27501,-1.025 -3.10001,-1.025 -1.825,0 -3.075,1.025 -1.25,1 -1.6,2.725 z"
       style="font-style:normal;font-variant:normal;font-weight:normal;font-stretch:normal;font-size:medium;line-height:125%;font-family:FreeMono;-inkscape-font-specification:FreeMono;letter-spacing:0px;word-spacing:0px;fill:none;fill-opacity:1;stroke:#000000;stroke-width:0.70866197;stroke-linecap:butt;stroke-linejoin:miter;stroke-miterlimit:4;stroke-dasharray:none;stroke-opacity:1"
       id="path4370"
       inkscape:connector-curvature="0" />
    <path
       d="m 228.65474,503.47392 0,9.4 4,0 q 0.7,0 0.7,0.50001 0,0.525 -0.7,0.525 l -9.02501,0 q -0.675,0 -0.675,-0.525 0,-0.50001 0.675,-0.50001 l 4,0 0,-8.375 -2.95,0 q -0.675,0 -0.675,-0.525 0,-0.5 0.675,-0.5 l 3.97501,0 z m -0.05,-5.17501 0,2.6 -1.47501,0 0,-2.6 1.47501,0 z"
       style="font-style:normal;font-variant:normal;font-weight:normal;font-stretch:normal;font-size:medium;line-height:125%;font-family:FreeMono;-inkscape-font-specification:FreeMono;letter-spacing:0px;word-spacing:0px;fill:none;fill-opacity:1;stroke:#000000;stroke-width:0.70866197;stroke-linecap:butt;stroke-linejoin:miter;stroke-miterlimit:4;stroke-dasharray:none;stroke-opacity:1"
       id="path4372"
       inkscape:connector-curvature="0" />
    <path
       d="m 249.01999,511.69892 q 0,0.225 -0.425,0.65 -0.425,0.4 -1.125,0.85001 -0.675,0.45 -1.8,0.775 -1.125,0.325 -2.30001,0.325 -2.45,0 -4.05,-1.55001 -1.575,-1.55 -1.575,-3.95 0,-2.475 1.625,-4.075 1.625,-1.6 4.12501,-1.6 2.325,0 3.9,1.375 l 0,-0.325 q 0,-0.7 0.525,-0.7 0.5,0 0.5,0.7 l 0,2.275 q 0,0.675 -0.5,0.675 -0.45,0 -0.525,-0.6 -0.075,-1 -1.25,-1.675 -1.15,-0.7 -2.72501,-0.7 -2.075,0 -3.375,1.3 -1.275,1.275 -1.275,3.325 0,1.975 1.3,3.25 1.3,1.25001 3.35,1.25001 2.72501,0 4.67501,-1.80001 0.25,-0.25 0.45,-0.25 0.2,0 0.325,0.15 0.15,0.125 0.15,0.325 z"
       style="font-style:normal;font-variant:normal;font-weight:normal;font-stretch:normal;font-size:medium;line-height:125%;font-family:FreeMono;-inkscape-font-specification:FreeMono;letter-spacing:0px;word-spacing:0px;fill:none;fill-opacity:1;stroke:#000000;stroke-width:0.70866197;stroke-linecap:butt;stroke-linejoin:miter;stroke-miterlimit:4;stroke-dasharray:none;stroke-opacity:1"
       id="path4374"
       inkscape:connector-curvature="0" />
    <path
       d="m 258.63523,503.47392 0,9.4 4.00001,0 q 0.7,0 0.7,0.50001 0,0.525 -0.7,0.525 l -9.02501,0 q -0.675,0 -0.675,-0.525 0,-0.50001 0.675,-0.50001 l 4,0 0,-8.375 -2.95,0 q -0.675,0 -0.675,-0.525 0,-0.5 0.675,-0.5 l 3.975,0 z m -0.05,-5.17501 0,2.6 -1.475,0 0,-2.6 1.475,0 z"
       style="font-style:normal;font-variant:normal;font-weight:normal;font-stretch:normal;font-size:medium;line-height:125%;font-family:FreeMono;-inkscape-font-specification:FreeMono;letter-spacing:0px;word-spacing:0px;fill:none;fill-opacity:1;stroke:#000000;stroke-width:0.70866197;stroke-linecap:butt;stroke-linejoin:miter;stroke-miterlimit:4;stroke-dasharray:none;stroke-opacity:1"
       id="path4376"
       inkscape:connector-curvature="0" />
    <path
       d="m 340.11263,331.41722 c -0.2,0 -0.35,0 -0.5,0 -2,0 -2.85,0.3 -2.85,1.7 0,1.15 0.65,1.75 1.95,1.75 l 6.5,0 c 1.45,0 1.95,-0.35 1.95,-1.75 0,-1.35 -0.65,-1.75 -2.35,-1.75 -0.3,0 -0.65,0.05 -1.05,0.05 l 0,-10.15001 c 0,-3.65001 3.4,-5.85001 6.35001,-5.85001 3.2,0 5.15,1.95 5.15,5.85001 l 0,10.15001 c -0.45,0 -0.7,0 -0.95,0 -1.75,0 -2.4,0.35 -2.4,1.7 0,1.4 0.5,1.75 1.95,1.75 l 6.50001,0 c 1.3,0 1.95,-0.6 1.95,-1.75 0,-1.25 -0.75,-1.7 -2.3,-1.7 -0.35,0 -0.70001,0 -1.05001,0 l 0,-11.05001 c 0,-5.65001 -3.35,-8.70001 -8,-8.70001 -2.55,0 -4.80001,1.1 -7.15001,3.3 l 0,-11.05001 c 0,-0.6 -0.45,-1 -1.4,-1 l -3.7,0 c -1.3,0 -1.95,0.6 -1.95,1.75 0,1.25 0.7,1.7 2.25,1.7 0.35,0 0.75,0.05 1.1,0.05 l 0,25.00003 z"
       style="font-style:normal;font-variant:normal;font-weight:normal;font-stretch:normal;font-size:medium;line-height:125%;font-family:'Courier 10 Pitch';-inkscape-font-specification:'Courier 10 Pitch';letter-spacing:0px;word-spacing:0px;fill:none;fill-opacity:1;stroke:#000000;stroke-width:0.70866197;stroke-linecap:butt;stroke-linejoin:miter;stroke-miterlimit:4;stroke-dasharray:none;stroke-opacity:1"
       id="path4379"
       inkscape:connector-curvature="0" />
    <path
       d="m 386.04079,313.6672 -9.60001,0 0,-4.95 c 0,-2.40001 -0.2,-3.40001 -1.95,-3.40001 -1.3,0 -1.9,0.7 -1.9,2.05 0,0.65001 0,1.10001 0,1.30001 l 0,5 -2.7,0 c -2.35,0 -3.35,0.15 -3.35,1.75 0,1.2 0.6,1.7 1.95,1.7 l 4.1,0 0,8.15001 c 0,0.25 0,0.5 0,0.75 0,2.25 0.05,4.2 0.9,5.65001 1.4,2.45 4,3.65 7.75001,3.65 2.3,0 4.85,-0.65 7.9,-1.85 1.80001,-0.7 2.70001,-1.4 2.70001,-2.55001 0,-0.9 -0.8,-1.75 -1.7,-1.75 -1.95001,0 -5.20001,2.60001 -9.15001,2.60001 -4.30001,0 -4.60001,-2.60001 -4.60001,-6.50001 l 0,-8.15001 9.90001,0 c 1.35,0 2.05,-0.55 2.05,-1.7 0,-1.25 -0.75,-1.75 -2.3,-1.75 z"
       style="font-style:normal;font-variant:normal;font-weight:normal;font-stretch:normal;font-size:medium;line-height:125%;font-family:'Courier 10 Pitch';-inkscape-font-specification:'Courier 10 Pitch';letter-spacing:0px;word-spacing:0px;fill:none;fill-opacity:1;stroke:#000000;stroke-width:0.70866197;stroke-linecap:butt;stroke-linejoin:miter;stroke-miterlimit:4;stroke-dasharray:none;stroke-opacity:1"
       id="path4381"
       inkscape:connector-curvature="0" />
    <path
       d="m 416.11894,313.6672 -9.60001,0 0,-4.95 c 0,-2.40001 -0.2,-3.40001 -1.95,-3.40001 -1.3,0 -1.9,0.7 -1.9,2.05 0,0.65001 0,1.10001 0,1.30001 l 0,5 -2.7,0 c -2.35,0 -3.35,0.15 -3.35,1.75 0,1.2 0.6,1.7 1.95,1.7 l 4.1,0 0,8.15001 c 0,0.25 0,0.5 0,0.75 0,2.25 0.05,4.2 0.9,5.65001 1.4,2.45 4,3.65 7.75001,3.65 2.3,0 4.85,-0.65 7.9,-1.85 1.80001,-0.7 2.70001,-1.4 2.70001,-2.55001 0,-0.9 -0.8,-1.75 -1.70001,-1.75 -1.95,0 -5.2,2.60001 -9.15,2.60001 -4.30001,0 -4.60001,-2.60001 -4.60001,-6.50001 l 0,-8.15001 9.90001,0 c 1.35,0 2.05,-0.55 2.05,-1.7 0,-1.25 -0.75,-1.75 -2.3,-1.75 z"
       style="font-style:normal;font-variant:normal;font-weight:normal;font-stretch:normal;font-size:medium;line-height:125%;font-family:'Courier 10 Pitch';-inkscape-font-specification:'Courier 10 Pitch';letter-spacing:0px;word-spacing:0px;fill:none;fill-opacity:1;stroke:#000000;stroke-width:0.70866197;stroke-linecap:butt;stroke-linejoin:miter;stroke-miterlimit:4;stroke-dasharray:none;stroke-opacity:1"
       id="path4383"
       inkscape:connector-curvature="0" />
    <path
       d="m 440.79709,331.31722 c -4.55001,0 -7.70001,-3.25001 -7.70001,-7.65001 0,-4.40001 3.15,-7.65001 7.70001,-7.65001 4.6,0 7.75001,3.25 7.75001,7.65001 0,4.55 -3.25001,7.65001 -7.75001,7.65001 z m -7.60001,9.8 0,-9.75 c 2,2.3 5.00001,3.55 8.45001,3.55 6.4,0 11.10001,-4.50001 11.10001,-11.00001 0,-6.85001 -5.10001,-11.65001 -11.50001,-11.65001 -3.1,0 -5.80001,1.15 -8.00001,3.4 l 0,-2.35 c 0,-0.7 -0.45,-1 -1.4,-1 l -3.75,0 c -1.3,0 -1.95,0.55 -1.95,1.7 0,1.25 0.75,1.75 2.3,1.75 0.35,0 0.75,0 1.1,0 l 0,25.35002 c -0.15,0 -0.3,0 -0.45,0 -2.05,0 -2.95,0.35 -2.95,1.75 0,1.15001 0.65,1.75001 1.95,1.75001 l 10.80001,0 c 1.45,0 2.05,-0.4 2.05,-1.75001 0,-1.15 -0.6,-1.75 -1.85,-1.75 l -5.90001,0 z"
       style="font-style:normal;font-variant:normal;font-weight:normal;font-stretch:normal;font-size:medium;line-height:125%;font-family:'Courier 10 Pitch';-inkscape-font-specification:'Courier 10 Pitch';letter-spacing:0px;word-spacing:0px;fill:none;fill-opacity:1;stroke:#000000;stroke-width:0.70866197;stroke-linecap:butt;stroke-linejoin:miter;stroke-miterlimit:4;stroke-dasharray:none;stroke-opacity:1"
       id="path4385"
       inkscape:connector-curvature="0" />
    <path
       d="m 464.82523,330.86721 c 0,2.50001 1.9,4.35001 4.80001,4.35001 2.9,0 4.8,-1.8 4.8,-4.35001 0,-2.55 -1.9,-4.35 -4.8,-4.35 -2.90001,0 -4.80001,1.85 -4.80001,4.35 z m 0,-13.50001 c 0,2.50001 1.9,4.35001 4.80001,4.35001 2.9,0 4.8,-1.8 4.8,-4.35001 0,-2.55 -1.9,-4.35 -4.8,-4.35 -2.90001,0 -4.80001,1.85 -4.80001,4.35 z"
       style="font-style:normal;font-variant:normal;font-weight:normal;font-stretch:normal;font-size:medium;line-height:125%;font-family:'Courier 10 Pitch';-inkscape-font-specification:'Courier 10 Pitch';letter-spacing:0px;word-spacing:0px;fill:none;fill-opacity:1;stroke:#000000;stroke-width:0.70866197;stroke-linecap:butt;stroke-linejoin:miter;stroke-miterlimit:4;stroke-dasharray:none;stroke-opacity:1"
       id="path4387"
       inkscape:connector-curvature="0" />
    <path
       d="m 494.20338,335.51722 15.35001,-33.05003 c 0.15,-0.3 0.25,-0.6 0.25,-0.9 0,-0.95 -0.85,-1.65 -1.75,-1.65 -1,0 -1.5,0.7 -2.2,2.15 l -15.25001,32.85003 c -0.15,0.35 -0.25,0.7 -0.25,1 0,0.95 0.8,1.7 1.7,1.7 1.05,0 1.55,-0.75 2.15,-2.1 z"
       style="font-style:normal;font-variant:normal;font-weight:normal;font-stretch:normal;font-size:medium;line-height:125%;font-family:'Courier 10 Pitch';-inkscape-font-specification:'Courier 10 Pitch';letter-spacing:0px;word-spacing:0px;fill:none;fill-opacity:1;stroke:#000000;stroke-width:0.70866197;stroke-linecap:butt;stroke-linejoin:miter;stroke-miterlimit:4;stroke-dasharray:none;stroke-opacity:1"
       id="path4389"
       inkscape:connector-curvature="0" />
    <path
       d="m 524.28153,335.51722 15.35002,-33.05003 c 0.15,-0.3 0.25,-0.6 0.25,-0.9 0,-0.95 -0.85,-1.65 -1.75,-1.65 -1,0 -1.50001,0.7 -2.20001,2.15 l -15.25001,32.85003 c -0.15,0.35 -0.25,0.7 -0.25,1 0,0.95 0.8,1.7 1.7,1.7 1.05,0 1.55,-0.75 2.15,-2.1 z"
       style="font-style:normal;font-variant:normal;font-weight:normal;font-stretch:normal;font-size:medium;line-height:125%;font-family:'Courier 10 Pitch';-inkscape-font-specification:'Courier 10 Pitch';letter-spacing:0px;word-spacing:0px;fill:none;fill-opacity:1;stroke:#000000;stroke-width:0.70866197;stroke-linecap:butt;stroke-linejoin:miter;stroke-miterlimit:4;stroke-dasharray:none;stroke-opacity:1"
       id="path4391"
       inkscape:connector-curvature="0" />
    <path
       d="m 553.65967,325.86721 0,-11.70001 c 0,-0.1 0,-0.15 0,-0.25 0,-1.1 -0.05,-1.6 -1.4,-1.6 l -3.7,0 c -1.3,0 -1.95,0.55 -1.95,1.7 0,1.25 0.7,1.75 2.25,1.75 0.35,0 0.75,0 1.1,0 l 0,11.00001 c 0,5.70001 2.7,8.60001 8.05001,8.60001 2.95,0 5.05,-1.15 7.6,-3.15 l 0,1.65 c 0,0.6 0.45,1 1.40001,1 l 3.7,0 c 1.3,0 1.95,-0.6 1.95,-1.75 0,-1.25 -0.7,-1.7 -2.25,-1.7 -0.35,0 -0.75,0 -1.1,0 l 0,-16.75002 c 0,-1.45 0,-2.35 -1.7,-2.35 l -5.20001,0 c -1.35,0 -1.95,0.5 -1.95,1.7 0,1.2 0.5,1.75 1.8,1.75 l 3.35,0 0,10.10001 c 0,3.6 -3.15,5.90001 -6.45,5.90001 -3.8,0 -5.50001,-1.90001 -5.50001,-5.90001 z"
       style="font-style:normal;font-variant:normal;font-weight:normal;font-stretch:normal;font-size:medium;line-height:125%;font-family:'Courier 10 Pitch';-inkscape-font-specification:'Courier 10 Pitch';letter-spacing:0px;word-spacing:0px;fill:none;fill-opacity:1;stroke:#000000;stroke-width:0.70866197;stroke-linecap:butt;stroke-linejoin:miter;stroke-miterlimit:4;stroke-dasharray:none;stroke-opacity:1"
       id="path4393"
       inkscape:connector-curvature="0" />
    <path
       d="m 580.83783,331.41722 c -0.2,0 -0.35,0 -0.5,0 -2.00001,0 -2.85001,0.3 -2.85001,1.7 0,1.15 0.65,1.75 2.05001,1.75 0.65,0 1.1,0 1.3,0 l 4.45,0 c 1.85,0 2.6,-0.1 2.6,-1.75 0,-1.35 -0.65,-1.75 -2.35,-1.75 -0.3,0 -0.65,0.05 -1.05,0.05 l 0,-10.15001 c 0,-3.65001 3.4,-5.85001 6.35001,-5.85001 3.2,0 5,1.95 5,5.85001 l 0,10.15001 c -0.3,0 -0.55,0 -0.8,0 -1.75,0 -2.45,0.35 -2.45,1.7 0,1.6 0.7,1.75 2.45,1.75 l 5.4,0 c 1.75,0 2.60001,-0.35 2.60001,-1.75 0,-1.25 -0.75,-1.7 -2.30001,-1.7 -0.35,0 -0.75,0 -1.1,0 l 0,-11.05001 c 0,-5.65001 -3.3,-8.70001 -7.95,-8.70001 -2.55001,0 -4.80001,1.1 -7.15001,3.3 l 0,-1.65 c 0,-0.6 -0.45,-1 -1.4,-1 l -2.3,0 c -2.25,0 -3.35001,0 -3.35001,1.7 0,1.25 0.7,1.75 2.25001,1.75 0.35,0 0.75,0 1.1,0 l 0,15.65002 z"
       style="font-style:normal;font-variant:normal;font-weight:normal;font-stretch:normal;font-size:medium;line-height:125%;font-family:'Courier 10 Pitch';-inkscape-font-specification:'Courier 10 Pitch';letter-spacing:0px;word-spacing:0px;fill:none;fill-opacity:1;stroke:#000000;stroke-width:0.70866197;stroke-linecap:butt;stroke-linejoin:miter;stroke-miterlimit:4;stroke-dasharray:none;stroke-opacity:1"
       id="path4395"
       inkscape:connector-curvature="0" />
    <path
       d="m 611.36597,323.91721 c 0,-4.85001 3.1,-8.05001 7.7,-8.05001 4.55001,0 7.70001,3.3 7.70001,7.80001 0,4.5 -3.25,7.90001 -7.75001,7.90001 -4.35,0 -7.65,-3.05001 -7.65,-7.65001 z m 16.00001,10.95001 4.65001,0 c 1.05,0 1.75,-0.65 1.75,-1.75 0,-1.25 -0.7,-1.7 -2.25001,-1.7 -0.35,0 -0.75,0 -1.1,0 l 0,-27.50003 c 0,-0.7 -0.45,-1 -1.4,-1 l -5,0 c -1.3,0 -1.95,0.6 -1.95,1.75 0,1.6 1.05,1.75 3.35,1.75 l 1.3,0 0,9.35001 c -1.9,-2.35 -4.6,-3.5 -7.95001,-3.5 -6.6,0 -11.60001,5.1 -11.60001,11.55001 0,6.85 4.70001,11.65001 10.85001,11.65001 3.45001,0 6.45001,-1.4 8.40001,-3.85 l 0,2 c 0,0.85 0.2,1.25 0.95,1.25 z"
       style="font-style:normal;font-variant:normal;font-weight:normal;font-stretch:normal;font-size:medium;line-height:125%;font-family:'Courier 10 Pitch';-inkscape-font-specification:'Courier 10 Pitch';letter-spacing:0px;word-spacing:0px;fill:none;fill-opacity:1;stroke:#000000;stroke-width:0.70866197;stroke-linecap:butt;stroke-linejoin:miter;stroke-miterlimit:4;stroke-dasharray:none;stroke-opacity:1"
       id="path4397"
       inkscape:connector-curvature="0" />
    <path
       d="m 641.94412,321.46721 c 0.95,-4.05001 4.10001,-6.45001 8.40001,-6.45001 3.95,0 7.05001,2.55 7.50001,6.45001 l -15.90002,0 z m -0.1,3.2 16.40002,0 c 3,0 4.05,0 4.05,-2.3 0,-5.45001 -4.55,-10.70001 -11.95001,-10.70001 -7.55001,0 -12.75001,4.85 -12.75001,11.85001 0,7.3 4.7,11.95001 12.25001,11.95001 3.3,0 6.85001,-0.8 10.20001,-2.45 1.45,-0.7 2.15,-1.45 2.15,-2.45001 0,-0.9 -0.75,-1.6 -1.7,-1.6 -2.2,0 -5.35001,3.05001 -10.30001,3.05001 -5.05,0 -8.10001,-2.65001 -8.35001,-7.35001 z"
       style="font-style:normal;font-variant:normal;font-weight:normal;font-stretch:normal;font-size:medium;line-height:125%;font-family:'Courier 10 Pitch';-inkscape-font-specification:'Courier 10 Pitch';letter-spacing:0px;word-spacing:0px;fill:none;fill-opacity:1;stroke:#000000;stroke-width:0.70866197;stroke-linecap:butt;stroke-linejoin:miter;stroke-miterlimit:4;stroke-dasharray:none;stroke-opacity:1"
       id="path4399"
       inkscape:connector-curvature="0" />
    <path
       d="m 669.47228,333.11722 c 0,1.55 0.65,2.35 1.8,2.35 0.55,0 1.35,-0.4 2.5,-1.15 2.75,0.7 5.20001,1.1 7.40001,1.1 6.1,0 9.55,-3.05 9.55,-7.25001 0,-4.8 -3.35,-6.7 -9.8,-6.85 -4.80001,-0.1 -7.60001,-0.35 -7.60001,-2.95001 0,-1.95 1.85,-3.6 5.1,-3.6 2.55001,0 4.35001,0.6 6.20001,2.25 1.45,1.3 1.95,2.55001 3.05,2.55001 1.2,0 1.65,-0.85001 1.65,-2.45001 l 0,-2.85 c 0,-1.65 -0.55,-2.45 -1.65,-2.45 -1.3,0 -1.8,0.95 -2.5,0.95 -0.7,0 -2.65,-1.1 -6.2,-1.1 -6.05001,0 -9.40001,2.8 -9.40001,6.85 0,4.35001 3.55,6.75001 10.20001,6.75001 0.7,0 1.15,0 1.4,0 3.7,0 5.5,0.7 5.5,3.2 0,2.2 -2.2,3.80001 -5.75,3.80001 -3.30001,0 -6.10001,-1.20001 -7.40001,-2.90001 -0.95,-1.25 -0.8,-2.6 -2.3,-2.6 -1.3,0 -1.75,0.7 -1.75,2 l 0,4.35001 z"
       style="font-style:normal;font-variant:normal;font-weight:normal;font-stretch:normal;font-size:medium;line-height:125%;font-family:'Courier 10 Pitch';-inkscape-font-specification:'Courier 10 Pitch';letter-spacing:0px;word-spacing:0px;fill:none;fill-opacity:1;stroke:#000000;stroke-width:0.70866197;stroke-linecap:butt;stroke-linejoin:miter;stroke-miterlimit:4;stroke-dasharray:none;stroke-opacity:1"
       id="path4401"
       inkscape:connector-curvature="0" />
    <path
       d="m 699.55043,333.11722 c 0,1.55 0.65,2.35 1.8,2.35 0.55,0 1.35001,-0.4 2.50001,-1.15 2.75,0.7 5.2,1.1 7.4,1.1 6.10001,0 9.55001,-3.05 9.55001,-7.25001 0,-4.8 -3.35,-6.7 -9.80001,-6.85 -4.8,-0.1 -7.6,-0.35 -7.6,-2.95001 0,-1.95 1.85,-3.6 5.1,-3.6 2.55,0 4.35,0.6 6.20001,2.25 1.45,1.3 1.95,2.55001 3.05,2.55001 1.2,0 1.65,-0.85001 1.65,-2.45001 l 0,-2.85 c 0,-1.65 -0.55,-2.45 -1.65,-2.45 -1.3,0 -1.8,0.95 -2.5,0.95 -0.7,0 -2.65001,-1.1 -6.20001,-1.1 -6.05,0 -9.40001,2.8 -9.40001,6.85 0,4.35001 3.55001,6.75001 10.20001,6.75001 0.7,0 1.15,0 1.4,0 3.70001,0 5.50001,0.7 5.50001,3.2 0,2.2 -2.2,3.80001 -5.75001,3.80001 -3.3,0 -6.1,-1.20001 -7.4,-2.90001 -0.95,-1.25 -0.8,-2.6 -2.30001,-2.6 -1.3,0 -1.75,0.7 -1.75,2 l 0,4.35001 z"
       style="font-style:normal;font-variant:normal;font-weight:normal;font-stretch:normal;font-size:medium;line-height:125%;font-family:'Courier 10 Pitch';-inkscape-font-specification:'Courier 10 Pitch';letter-spacing:0px;word-spacing:0px;fill:none;fill-opacity:1;stroke:#000000;stroke-width:0.70866197;stroke-linecap:butt;stroke-linejoin:miter;stroke-miterlimit:4;stroke-dasharray:none;stroke-opacity:1"
       id="path4403"
       inkscape:connector-curvature="0" />
    <path
       d="m 732.17859,321.46721 c 0.95,-4.05001 4.1,-6.45001 8.40001,-6.45001 3.95,0 7.05,2.55 7.5,6.45001 l -15.90001,0 z m -0.1,3.2 16.40001,0 c 3.00001,0 4.05001,0 4.05001,-2.3 0,-5.45001 -4.55001,-10.70001 -11.95001,-10.70001 -7.55001,0 -12.75001,4.85 -12.75001,11.85001 0,7.3 4.7,11.95001 12.25001,11.95001 3.3,0 6.85,-0.8 10.20001,-2.45 1.45,-0.7 2.15,-1.45 2.15,-2.45001 0,-0.9 -0.75,-1.6 -1.7,-1.6 -2.20001,0 -5.35001,3.05001 -10.30001,3.05001 -5.05001,0 -8.10001,-2.65001 -8.35001,-7.35001 z"
       style="font-style:normal;font-variant:normal;font-weight:normal;font-stretch:normal;font-size:medium;line-height:125%;font-family:'Courier 10 Pitch';-inkscape-font-specification:'Courier 10 Pitch';letter-spacing:0px;word-spacing:0px;fill:none;fill-opacity:1;stroke:#000000;stroke-width:0.70866197;stroke-linecap:butt;stroke-linejoin:miter;stroke-miterlimit:4;stroke-dasharray:none;stroke-opacity:1"
       id="path4405"
       inkscape:connector-curvature="0" />
    <path
       d="m 761.30671,331.41722 c -0.2,0 -0.35,0 -0.5,0 -2,0 -2.85,0.3 -2.85,1.7 0,1.15 0.65,1.75 2.05,1.75 0.65,0 1.1,0 1.3,0 l 4.45001,0 c 1.85,0 2.6,-0.1 2.6,-1.75 0,-1.35 -0.65,-1.75 -2.35,-1.75 -0.3,0 -0.65,0.05 -1.05,0.05 l 0,-10.15001 c 0,-3.65001 3.4,-5.85001 6.35,-5.85001 3.20001,0 5.00001,1.95 5.00001,5.85001 l 0,10.15001 c -0.3,0 -0.55,0 -0.8,0 -1.75001,0 -2.45001,0.35 -2.45001,1.7 0,1.6 0.7,1.75 2.45001,1.75 l 5.4,0 c 1.75,0 2.6,-0.35 2.6,-1.75 0,-1.25 -0.75,-1.7 -2.3,-1.7 -0.35,0 -0.75,0 -1.1,0 l 0,-11.05001 c 0,-5.65001 -3.3,-8.70001 -7.95001,-8.70001 -2.55,0 -4.8,1.1 -7.15,3.3 l 0,-1.65 c 0,-0.6 -0.45,-1 -1.4,-1 l -2.30001,0 c -2.25,0 -3.35,0 -3.35,1.7 0,1.25 0.7,1.75 2.25,1.75 0.35,0 0.75,0 1.1,0 l 0,15.65002 z"
       style="font-style:normal;font-variant:normal;font-weight:normal;font-stretch:normal;font-size:medium;line-height:125%;font-family:'Courier 10 Pitch';-inkscape-font-specification:'Courier 10 Pitch';letter-spacing:0px;word-spacing:0px;fill:none;fill-opacity:1;stroke:#000000;stroke-width:0.70866197;stroke-linecap:butt;stroke-linejoin:miter;stroke-miterlimit:4;stroke-dasharray:none;stroke-opacity:1"
       id="path4407"
       inkscape:connector-curvature="0" />
    <path
       d="m 789.78487,333.11722 c 0,1.55 0.65,2.35 1.8,2.35 0.55,0 1.35,-0.4 2.5,-1.15 2.75,0.7 5.20001,1.1 7.40001,1.1 6.1,0 9.55001,-3.05 9.55001,-7.25001 0,-4.8 -3.35001,-6.7 -9.80001,-6.85 -4.80001,-0.1 -7.60001,-0.35 -7.60001,-2.95001 0,-1.95 1.85,-3.6 5.10001,-3.6 2.55,0 4.35,0.6 6.2,2.25 1.45,1.3 1.95,2.55001 3.05,2.55001 1.2,0 1.65001,-0.85001 1.65001,-2.45001 l 0,-2.85 c 0,-1.65 -0.55001,-2.45 -1.65001,-2.45 -1.3,0 -1.8,0.95 -2.5,0.95 -0.7,0 -2.65,-1.1 -6.2,-1.1 -6.05001,0 -9.40001,2.8 -9.40001,6.85 0,4.35001 3.55,6.75001 10.20001,6.75001 0.7,0 1.15,0 1.4,0 3.7,0 5.5,0.7 5.5,3.2 0,2.2 -2.2,3.80001 -5.75,3.80001 -3.3,0 -6.10001,-1.20001 -7.40001,-2.90001 -0.95,-1.25 -0.8,-2.6 -2.3,-2.6 -1.3,0 -1.75,0.7 -1.75,2 l 0,4.35001 z"
       style="font-style:normal;font-variant:normal;font-weight:normal;font-stretch:normal;font-size:medium;line-height:125%;font-family:'Courier 10 Pitch';-inkscape-font-specification:'Courier 10 Pitch';letter-spacing:0px;word-spacing:0px;fill:none;fill-opacity:1;stroke:#000000;stroke-width:0.70866197;stroke-linecap:butt;stroke-linejoin:miter;stroke-miterlimit:4;stroke-dasharray:none;stroke-opacity:1"
       id="path4409"
       inkscape:connector-curvature="0" />
    <path
       d="m 825.76303,330.86721 c 0,2.50001 1.9,4.35001 4.8,4.35001 2.90001,0 4.80001,-1.8 4.80001,-4.35001 0,-2.55 -1.9,-4.35 -4.80001,-4.35 -2.9,0 -4.8,1.85 -4.8,4.35 z"
       style="font-style:normal;font-variant:normal;font-weight:normal;font-stretch:normal;font-size:medium;line-height:125%;font-family:'Courier 10 Pitch';-inkscape-font-specification:'Courier 10 Pitch';letter-spacing:0px;word-spacing:0px;fill:none;fill-opacity:1;stroke:#000000;stroke-width:0.70866197;stroke-linecap:butt;stroke-linejoin:miter;stroke-miterlimit:4;stroke-dasharray:none;stroke-opacity:1"
       id="path4411"
       inkscape:connector-curvature="0" />
    <path
       d="m 873.3912,323.61721 c 0,-6.75001 -5,-11.85001 -12.75001,-11.85001 -7.75001,0 -12.80001,5.05 -12.80001,11.85001 0,6.8 5.05,11.85001 12.80001,11.85001 7.75001,0 12.75001,-5.05001 12.75001,-11.85001 z m -12.75001,8.45001 c -5.05001,0 -8.55001,-3.60001 -8.55001,-8.45001 0,-4.85001 3.5,-8.50001 8.55001,-8.50001 5.05,0 8.55001,3.65 8.55001,8.50001 0,4.9 -3.50001,8.45001 -8.55001,8.45001 z"
       style="font-style:normal;font-variant:normal;font-weight:normal;font-stretch:normal;font-size:medium;line-height:125%;font-family:'Courier 10 Pitch';-inkscape-font-specification:'Courier 10 Pitch';letter-spacing:0px;word-spacing:0px;fill:none;fill-opacity:1;stroke:#000000;stroke-width:0.70866197;stroke-linecap:butt;stroke-linejoin:miter;stroke-miterlimit:4;stroke-dasharray:none;stroke-opacity:1"
       id="path4413"
       inkscape:connector-curvature="0" />
    <path
       d="m 888.31931,331.41722 0,-10.10001 c 3.25,-3.70001 6.00001,-5.65001 8.70001,-5.65001 1.9,0 2.95,1.5 4.25,1.5 1.05,0 2.15,-1.1 2.15,-2.3 0,-1.8 -1.8,-3.15 -4.85,-3.15 -3.9,0 -7.20001,1.9 -10.25001,5.75 l 0,-4.15 c 0,-0.7 -0.45,-1 -1.35,-1 l -5.55,0 c -1.30001,0 -1.95001,0.55 -1.95001,1.7 0,1.25 0.7,1.75 2.30001,1.75 0.25,0 0.7,0 1.25,0 l 1.65,0 0,15.65002 -4.30001,0 c -1.35,0 -2.05,0.55 -2.05,1.7 0,1.15 0.7,1.75 2,1.75 l 15.95002,0 c 1.45,0 2,-0.35 2,-1.75 0,-1.2 -0.6,-1.7 -1.85,-1.7 l -8.10001,0 z"
       style="font-style:normal;font-variant:normal;font-weight:normal;font-stretch:normal;font-size:medium;line-height:125%;font-family:'Courier 10 Pitch';-inkscape-font-specification:'Courier 10 Pitch';letter-spacing:0px;word-spacing:0px;fill:none;fill-opacity:1;stroke:#000000;stroke-width:0.70866197;stroke-linecap:butt;stroke-linejoin:miter;stroke-miterlimit:4;stroke-dasharray:none;stroke-opacity:1"
       id="path4415"
       inkscape:connector-curvature="0" />
    <path
       d="m 930.69751,333.56722 0,-17.80002 c 0.15,0 0.3,0 0.45,0 2.05,0 2.9,-0.35 2.9,-1.75 0,-1.15 -0.65,-1.7 -1.95,-1.7 l -3.7,0 c -0.95,0 -1.40001,0.3 -1.40001,1 l 0,1.75 c -2.35,-1.85 -4.7,-2.8 -7.2,-2.8 -5.90001,0 -10.75001,4.45 -10.75001,10.75001 0,6.4 4.5,10.85001 10.55001,10.85001 3.15,0 5.45,-1.05 7.45,-3.35001 l 0,2.95001 c 0,5.05 -1.55,7.35 -6.65,7.35 -1.3,0 -2.65,-0.35 -4.1,-0.35 -1.15001,0 -2.10001,0.9 -2.10001,1.9 0,1.60001 1.75001,2.25001 5.35001,2.25001 4.55,0 7.85001,-1.35 9.65001,-3.70001 1.45,-1.9 1.5,-4.05 1.5,-6.8 0,-0.2 0,-0.35 0,-0.55 z M 920.0975,315.9172 c 4.3,0 7.25001,3 7.25001,7.10001 0,4.15 -3.00001,7.1 -7.25001,7.1 -4.3,0 -7.25001,-3 -7.25001,-7.1 0,-4.20001 3.00001,-7.10001 7.25001,-7.10001 z"
       style="font-style:normal;font-variant:normal;font-weight:normal;font-stretch:normal;font-size:medium;line-height:125%;font-family:'Courier 10 Pitch';-inkscape-font-specification:'Courier 10 Pitch';letter-spacing:0px;word-spacing:0px;fill:none;fill-opacity:1;stroke:#000000;stroke-width:0.70866197;stroke-linecap:butt;stroke-linejoin:miter;stroke-miterlimit:4;stroke-dasharray:none;stroke-opacity:1"
       id="path4417"
       inkscape:connector-curvature="0" />
    <path
       d="m 388.94478,504.34759 q 0,-1.12501 1.35,-2.40001 1.375,-1.3 3.3,-1.3 1.825,0 3.20001,1.3 1.4,1.3 1.4,3.00001 0,1.125 -0.675,2.125 -0.65,0.975 -2.92501,3.1 l -5.175,4.825 0,0.075 7.85001,0 0,-0.9 q 0,-0.675 0.525,-0.675 0.5,0 0.5,0.675 l 0,1.92501 -9.85001,0 0,-1.50001 5.9,-5.55 q 1.75001,-1.725 2.27501,-2.5 0.55,-0.775 0.55,-1.625 0,-1.30001 -1.075,-2.27501 -1.07501,-0.975 -2.50001,-0.975 -1.275,0 -2.325,0.75 -1.025,0.75 -1.325,1.87501 -0.15,0.5 -0.525,0.5 -0.175,0 -0.325,-0.125 -0.15,-0.15 -0.15,-0.325 z"
       style="font-style:normal;font-variant:normal;font-weight:normal;font-stretch:normal;font-size:medium;line-height:125%;font-family:FreeMono;-inkscape-font-specification:FreeMono;letter-spacing:0px;word-spacing:0px;fill:none;fill-opacity:1;stroke:#000000;stroke-width:0.70866197;stroke-linecap:butt;stroke-linejoin:miter;stroke-miterlimit:4;stroke-dasharray:none;stroke-opacity:1"
       id="path4420"
       inkscape:connector-curvature="0" />
    <path
       d="m 602.02322,502.82849 q 0,-0.275 0.475,-0.775 0.5,-0.5 1.575,-0.975 1.075,-0.5 2.35,-0.5 1.875,0 3.125,1.125 1.275,1.1 1.275,2.725 0,1.45 -0.825,2.30001 -0.8,0.85 -1.75,1.1 1.475,0.6 2.3,1.675 0.825,1.05 0.825,2.325 0,1.9 -1.55,3.25 -1.525,1.325 -3.675,1.325 -1.475,0 -3.175,-0.725 -1.675,-0.75 -1.675,-1.375 0,-0.175 0.15,-0.325 0.15,-0.15 0.325,-0.15 0.175,0 0.7,0.4 0.525,0.375 1.5,0.775 0.975,0.375 2.2,0.375 1.7,0 2.925,-1.05 1.25,-1.05 1.25,-2.5 0,-1.475 -1.325,-2.525 -1.325,-1.075 -3.15,-1.075 -0.675,0 -0.675,-0.525 0,-0.5 0.675,-0.5 3.925,0 3.925,-2.75001 0,-1.225 -0.975,-2.025 -0.975,-0.825 -2.425,-0.825 -1.05,0 -1.8,0.275 -0.725,0.25 -1.025,0.575 -0.275,0.325 -0.55,0.6 -0.275,0.25 -0.5,0.25 -0.2,0 -0.35,-0.125 -0.15,-0.15 -0.15,-0.35 z"
       style="font-style:normal;font-variant:normal;font-weight:normal;font-stretch:normal;font-size:medium;line-height:125%;font-family:FreeMono;-inkscape-font-specification:FreeMono;letter-spacing:0px;word-spacing:0px;fill:none;fill-opacity:1;stroke:#000000;stroke-width:0.70866197;stroke-linecap:butt;stroke-linejoin:miter;stroke-miterlimit:4;stroke-dasharray:none;stroke-opacity:1"
       id="path4423"
       inkscape:connector-curvature="0" />
    <path
       d="m 819.24012,513.74845 -6.77501,0 0,-1.175 5.7,-9.70001 2.10001,0 0,9.85001 0.85,0 q 0.675,0 0.675,0.525 0,0.5 -0.675,0.5 l -0.85,0 0,3.2 0.85,0 q 0.675,0 0.675,0.5 0,0.525 -0.675,0.525 l -3.77501,0 q -0.675,0 -0.675,-0.525 0,-0.5 0.675,-0.5 l 1.90001,0 0,-3.2 z m 0,-1.025 0,-8.82501 -0.6,0 -5.20001,8.82501 5.80001,0 z"
       style="font-style:normal;font-variant:normal;font-weight:normal;font-stretch:normal;font-size:medium;line-height:125%;font-family:FreeMono;-inkscape-font-specification:FreeMono;letter-spacing:0px;word-spacing:0px;fill:none;fill-opacity:1;stroke:#000000;stroke-width:0.70866197;stroke-linecap:butt;stroke-linejoin:miter;stroke-miterlimit:4;stroke-dasharray:none;stroke-opacity:1"
       id="path4426"
       inkscape:connector-curvature="0" />
    <path
       d="m 264.02126,382.27807 6.76876,0 c 2.73125,0 4.0375,-0.2375 4.9875,-0.83125 1.78125,-1.06875 2.85,-3.0875 2.85,-5.10625 0,-1.90001 -0.95,-3.68126 -2.49375,-4.86876 -1.1875,-0.83125 -2.1375,-1.06875 -5.34375,-1.06875 l -25.41252,0 c -3.08751,0 -3.91876,0.11875 -4.98751,0.83125 -1.78125,1.06875 -2.85,3.0875 -2.85,5.10626 0,1.9 0.95,3.68125 2.49375,4.86875 1.06875,0.83125 2.375,1.06875 5.34376,1.06875 l 6.76875,0 0,45.48129 -6.76875,0 c -3.08751,0 -3.91876,0.11875 -4.98751,0.83125 -1.78125,1.06875 -2.85,3.0875 -2.85,5.10625 0,1.90001 0.95,3.68126 2.49375,4.75001 0.95,0.83125 2.6125,1.1875 5.34376,1.1875 l 56.05004,0 0,-22.80002 c 0,-2.96875 -0.11875,-4.0375 -0.83125,-5.10625 -1.1875,-1.78126 -3.0875,-2.85001 -5.10625,-2.85001 -1.9,0 -3.68126,0.83125 -4.86876,2.49376 -0.83125,1.1875 -1.06875,2.25625 -1.06875,5.4625 l 0,10.92501 -25.53127,0 0,-45.48129 z"
       style="font-style:normal;font-variant:normal;font-weight:bold;font-stretch:normal;font-size:medium;line-height:125%;font-family:'Nimbus Mono L';-inkscape-font-specification:'Nimbus Mono L Bold';letter-spacing:0px;word-spacing:0px;fill:none;fill-opacity:1;stroke:#000000;stroke-width:0.70866197;stroke-linecap:butt;stroke-linejoin:miter;stroke-miterlimit:4;stroke-dasharray:none;stroke-opacity:1"
       id="path4429"
       inkscape:connector-curvature="0" />
    <path
       d="m 340.80619,386.19682 c -17.57501,0 -30.99378,11.99376 -30.99378,27.66878 0,15.43751 13.53752,27.66877 30.63753,27.66877 17.10001,0 30.63753,-12.23126 30.63753,-27.66877 0,-15.31877 -13.53752,-27.66878 -30.28128,-27.66878 z m -0.11875,11.87501 c 10.33126,0 18.52502,7.00626 18.52502,15.79377 0,8.90625 -8.19376,15.79376 -18.76252,15.79376 -10.56876,0 -18.76252,-6.88751 -18.76252,-15.79376 0,-9.02501 8.19376,-15.79377 19.00002,-15.79377 z"
       style="font-style:normal;font-variant:normal;font-weight:bold;font-stretch:normal;font-size:medium;line-height:125%;font-family:'Nimbus Mono L';-inkscape-font-specification:'Nimbus Mono L Bold';letter-spacing:0px;word-spacing:0px;fill:none;fill-opacity:1;stroke:#000000;stroke-width:0.70866197;stroke-linecap:butt;stroke-linejoin:miter;stroke-miterlimit:4;stroke-dasharray:none;stroke-opacity:1"
       id="path4431"
       inkscape:connector-curvature="0" />
    <path
       d="m 412.00986,386.19682 c -17.57501,0 -30.99377,11.99376 -30.99377,27.66878 0,15.43751 13.53751,27.66877 30.63752,27.66877 17.10002,0 30.63753,-12.23126 30.63753,-27.66877 0,-15.31877 -13.53751,-27.66878 -30.28128,-27.66878 z m -0.11875,11.87501 c 10.33126,0 18.52502,7.00626 18.52502,15.79377 0,8.90625 -8.19376,15.79376 -18.76252,15.79376 -10.56875,0 -18.76251,-6.88751 -18.76251,-15.79376 0,-9.02501 8.19376,-15.79377 19.00001,-15.79377 z"
       style="font-style:normal;font-variant:normal;font-weight:bold;font-stretch:normal;font-size:medium;line-height:125%;font-family:'Nimbus Mono L';-inkscape-font-specification:'Nimbus Mono L Bold';letter-spacing:0px;word-spacing:0px;fill:none;fill-opacity:1;stroke:#000000;stroke-width:0.70866197;stroke-linecap:butt;stroke-linejoin:miter;stroke-miterlimit:4;stroke-dasharray:none;stroke-opacity:1"
       id="path4433"
       inkscape:connector-curvature="0" />
    <path
       d="m 467.89478,431.79686 c 6.175,4.75001 11.40001,6.65001 18.40626,6.65001 16.50627,0 28.73753,-10.80626 28.73753,-25.41252 0,-15.31877 -12.35001,-26.83753 -28.97503,-26.83753 -7.3625,0 -12.35001,1.90001 -18.16876,6.88751 l 0,-5.34375 -13.77502,0 c -2.85,0 -3.91875,0.2375 -4.9875,0.83125 -1.78125,1.06875 -2.85,3.0875 -2.85,5.10625 0,1.9 0.95,3.68125 2.375,4.86875 1.1875,0.83126 2.375,1.06876 5.4625,1.06876 l 1.90001,0 0,52.48754 -1.90001,0 c -2.85,0 -3.91875,0.11875 -4.9875,0.83125 -1.78125,1.06875 -2.85,3.0875 -2.85,5.10625 0,1.90001 0.95,3.68126 2.375,4.75001 1.1875,0.95 2.49375,1.1875 5.4625,1.1875 l 20.66252,0 c 2.6125,0 4.03751,-0.2375 4.98751,-0.83125 1.78125,-1.1875 2.85,-3.0875 2.85,-5.10626 0,-1.9 -0.83125,-3.68125 -2.375,-4.86875 -1.1875,-0.83125 -2.37501,-1.06875 -5.46251,-1.06875 l -6.8875,0 0,-20.30627 z m 17.69376,-33.72503 c 4.86875,0 8.78751,1.06876 11.87501,3.44376 3.44375,2.49375 5.70001,6.8875 5.70001,10.80626 0,8.3125 -7.36251,14.25001 -17.57502,14.25001 -10.45001,0 -17.69376,-5.93751 -17.69376,-14.36876 0,-3.80001 2.25625,-8.19376 5.7,-10.68751 3.0875,-2.375 7.00626,-3.44376 11.99376,-3.44376 z"
       style="font-style:normal;font-variant:normal;font-weight:bold;font-stretch:normal;font-size:medium;line-height:125%;font-family:'Nimbus Mono L';-inkscape-font-specification:'Nimbus Mono L Bold';letter-spacing:0px;word-spacing:0px;fill:none;fill-opacity:1;stroke:#000000;stroke-width:0.70866197;stroke-linecap:butt;stroke-linejoin:miter;stroke-miterlimit:4;stroke-dasharray:none;stroke-opacity:1"
       id="path4435"
       inkscape:connector-curvature="0" />
    <path
       d="m 631.20214,387.74058 -21.13752,0 c -3.0875,0 -4.0375,0.11875 -5.10625,0.83125 -1.78125,1.06875 -2.85,3.0875 -2.85,5.10625 0,1.9 0.95,3.68125 2.49375,4.75 1.06875,0.95001 2.49375,1.18751 5.4625,1.18751 l 9.26251,0 0,28.14377 -14.48751,0 c -3.0875,0 -3.91875,0.11875 -4.9875,0.83125 -1.78126,1.06875 -2.85001,3.0875 -2.85001,5.10625 0,1.90001 0.95,3.68126 2.49376,4.75001 0.95,0.83125 2.6125,1.1875 5.34375,1.1875 l 40.85003,0 c 2.37501,0 4.15626,-0.35625 4.98751,-0.83125 1.78125,-1.1875 2.85,-3.0875 2.85,-5.10626 0,-1.9 -0.95,-3.68125 -2.49375,-4.86875 -1.1875,-0.83125 -2.1375,-1.06875 -5.34376,-1.06875 l -14.48751,0 0,-40.01878 z m -1.6625,-22.08752 -14.01251,0 0,12.46876 14.01251,0 0,-12.46876 z"
       style="font-style:normal;font-variant:normal;font-weight:bold;font-stretch:normal;font-size:medium;line-height:125%;font-family:'Nimbus Mono L';-inkscape-font-specification:'Nimbus Mono L Bold';letter-spacing:0px;word-spacing:0px;fill:none;fill-opacity:1;stroke:#000000;stroke-width:0.70866197;stroke-linecap:butt;stroke-linejoin:miter;stroke-miterlimit:4;stroke-dasharray:none;stroke-opacity:1"
       id="path4437"
       inkscape:connector-curvature="0" />
    <path
       d="m 686.2558,399.61559 21.49377,0 c 2.6125,0 4.0375,-0.2375 4.98751,-0.83126 1.78125,-1.06875 2.85,-3.0875 2.85,-5.10625 0,-1.9 -0.95,-3.68125 -2.375,-4.86875 -1.30626,-0.83125 -2.25626,-1.06875 -5.46251,-1.06875 l -21.49377,0 0,-10.45001 c 0,-3.08751 -0.11875,-3.91876 -0.83125,-4.98751 -1.06875,-1.78125 -3.0875,-2.85 -5.10625,-2.85 -1.9,0 -3.68126,0.95 -4.75001,2.375 -0.95,1.1875 -1.1875,2.375 -1.1875,5.46251 l 0,10.45001 -4.15625,0 c -3.0875,0 -3.91875,0.11875 -4.9875,0.83125 -1.78126,1.06875 -2.85001,3.0875 -2.85001,5.10625 0,1.78125 0.95,3.68125 2.375,4.75 1.18751,0.95001 2.49376,1.18751 5.46251,1.18751 l 4.15625,0 0,25.53127 c 0,10.09376 8.43126,16.38751 21.96877,16.38751 6.17501,0 15.55626,-2.01875 21.37502,-4.75 4.5125,-2.01876 5.9375,-3.56251 5.9375,-6.41251 0,-3.325 -2.49375,-6.05625 -5.7,-6.05625 -1.30625,0 -2.1375,0.2375 -4.15625,1.30625 -5.34376,2.73125 -11.04376,4.0375 -17.33752,4.0375 -4.5125,0 -7.83751,-0.83125 -9.26251,-2.375 -0.7125,-0.83125 -0.95,-1.9 -0.95,-4.39376 l 0,-23.27501 z"
       style="font-style:normal;font-variant:normal;font-weight:bold;font-stretch:normal;font-size:medium;line-height:125%;font-family:'Nimbus Mono L';-inkscape-font-specification:'Nimbus Mono L Bold';letter-spacing:0px;word-spacing:0px;fill:none;fill-opacity:1;stroke:#000000;stroke-width:0.70866197;stroke-linecap:butt;stroke-linejoin:miter;stroke-miterlimit:4;stroke-dasharray:none;stroke-opacity:1"
       id="path4439"
       inkscape:connector-curvature="0" />
    <path
       d="m 848.25692,377.29057 c 0.11875,-1.54375 0.2375,-3.20626 0.2375,-3.91876 0,-5.4625 -4.03751,-9.5 -9.50001,-9.5 -5.58125,0 -9.61876,4.0375 -9.61876,9.5 0,0.83125 0.11875,2.49376 0.2375,3.91876 l 3.44376,35.26878 c 0.35625,3.5625 2.6125,5.81875 5.9375,5.81875 3.325,0 5.4625,-2.1375 5.81876,-5.81875 l 3.44375,-35.26878 z m -8.31251,64.12505 c 4.39375,0 7.83751,-3.44375 7.83751,-7.83751 0,-4.39375 -3.44376,-7.8375 -7.83751,-7.8375 l -2.01875,0 c -4.39375,0 -7.95626,3.5625 -7.95626,7.8375 0,4.27501 3.56251,7.83751 7.95626,7.83751 l 2.01875,0 z"
       style="font-style:normal;font-variant:normal;font-weight:bold;font-stretch:normal;font-size:medium;line-height:125%;font-family:'Nimbus Mono L';-inkscape-font-specification:'Nimbus Mono L Bold';letter-spacing:0px;word-spacing:0px;fill:none;fill-opacity:1;stroke:#000000;stroke-width:0.70866197;stroke-linecap:butt;stroke-linejoin:miter;stroke-miterlimit:4;stroke-dasharray:none;stroke-opacity:1"
       id="path4441"
       inkscape:connector-curvature="0" />
    <path
       d="m 94.13088,643.95438 q -0.125,0 -0.775,-0.52501 -0.65,-0.525 -1.275,-0.525 -0.85,0 -1.775,0.6 -0.9,0.60001 -2.975,2.50001 l 0,5.525 4.475,0 q 0.675,0 0.675,0.525 0,0.5 -0.675,0.5 l -7.90001,0 q -0.675,0 -0.675,-0.525 0,-0.5 0.675,-0.5 l 2.40001,0 0,-8.37501 -1.87501,0 q -0.675,0 -0.675,-0.525 0,-0.5 0.675,-0.5 l 2.90001,0 0,2.55001 q 1.725,-1.57501 2.8,-2.17501 1.075,-0.625 2.025,-0.625 1,0 1.75,0.6 0.75,0.6 0.75,0.95 0,0.225 -0.15,0.375 -0.15,0.15001 -0.375,0.15001 z"
       style="font-style:normal;font-variant:normal;font-weight:normal;font-stretch:normal;font-size:medium;line-height:125%;font-family:FreeMono;-inkscape-font-specification:FreeMono;letter-spacing:0px;word-spacing:0px;fill:none;fill-opacity:1;stroke:#000000;stroke-width:0.70866197;stroke-linecap:butt;stroke-linejoin:miter;stroke-miterlimit:4;stroke-dasharray:none;stroke-opacity:1"
       id="path4444"
       inkscape:connector-curvature="0" />
    <path
       d="m 109.12113,647.57938 -10.40001,0 q 0.275,1.975 1.65,3.175 1.375,1.175 3.4,1.175 1.17501,0 2.40001,-0.375 1.225,-0.375 1.975,-0.975 0.25,-0.175 0.4,-0.175 0.2,0 0.325,0.15 0.15,0.15 0.15,0.35 0,0.65 -1.8,1.35 -1.775,0.7 -3.47501,0.7 -2.525,0 -4.3,-1.7 -1.75,-1.7 -1.75,-4.125 0,-2.275 1.65,-3.80001 1.65,-1.55 4.05,-1.55 2.52501,0 4.12501,1.6 1.6,1.57501 1.6,4.20001 z m -10.40001,-1.025 9.35001,0 q -0.3,-1.7 -1.575,-2.725 -1.275,-1.02501 -3.10001,-1.02501 -1.825,0 -3.075,1.02501 -1.25,1 -1.6,2.725 z"
       style="font-style:normal;font-variant:normal;font-weight:normal;font-stretch:normal;font-size:medium;line-height:125%;font-family:FreeMono;-inkscape-font-specification:FreeMono;letter-spacing:0px;word-spacing:0px;fill:none;fill-opacity:1;stroke:#000000;stroke-width:0.70866197;stroke-linecap:butt;stroke-linejoin:miter;stroke-miterlimit:4;stroke-dasharray:none;stroke-opacity:1"
       id="path4446"
       inkscape:connector-curvature="0" />
    <path
       d="m 124.48638,650.35438 q 0,0.225 -0.425,0.65 -0.425,0.4 -1.125,0.85 -0.67501,0.45 -1.80001,0.775 -1.125,0.325 -2.3,0.325 -2.45,0 -4.05,-1.55 -1.575,-1.55 -1.575,-3.95 0,-2.475 1.625,-4.07501 1.625,-1.6 4.125,-1.6 2.325,0 3.90001,1.375 l 0,-0.325 q 0,-0.7 0.525,-0.7 0.5,0 0.5,0.7 l 0,2.27501 q 0,0.675 -0.5,0.675 -0.45,0 -0.525,-0.6 -0.075,-1 -1.25001,-1.67501 -1.15,-0.7 -2.725,-0.7 -2.075,0 -3.375,1.30001 -1.275,1.275 -1.275,3.325 0,1.975 1.3,3.25 1.3,1.25 3.35,1.25 2.725,0 4.67501,-1.8 0.25,-0.25 0.45,-0.25 0.2,0 0.325,0.15 0.15,0.125 0.15,0.325 z"
       style="font-style:normal;font-variant:normal;font-weight:normal;font-stretch:normal;font-size:medium;line-height:125%;font-family:FreeMono;-inkscape-font-specification:FreeMono;letter-spacing:0px;word-spacing:0px;fill:none;fill-opacity:1;stroke:#000000;stroke-width:0.70866197;stroke-linecap:butt;stroke-linejoin:miter;stroke-miterlimit:4;stroke-dasharray:none;stroke-opacity:1"
       id="path4448"
       inkscape:connector-curvature="0" />
    <path
       d="m 138.15162,636.72937 -8.175,17.40001 q -0.225,0.45 -0.55,0.45 -0.2,0 -0.35,-0.15 -0.15,-0.15 -0.15,-0.325 0,-0.125 0.125,-0.4 l 8.175,-17.40001 q 0.2,-0.45 0.55,-0.45 0.2,0 0.35,0.15 0.15,0.15 0.15,0.325 0,0.15 -0.125,0.4 z"
       style="font-style:normal;font-variant:normal;font-weight:normal;font-stretch:normal;font-size:medium;line-height:125%;font-family:FreeMono;-inkscape-font-specification:FreeMono;letter-spacing:0px;word-spacing:0px;fill:none;fill-opacity:1;stroke:#000000;stroke-width:0.70866197;stroke-linecap:butt;stroke-linejoin:miter;stroke-miterlimit:4;stroke-dasharray:none;stroke-opacity:1"
       id="path4450"
       inkscape:connector-curvature="0" />
    <path
       d="m 152.39187,649.62938 q 0,-0.925 -0.85,-1.425 -0.85,-0.5 -2.05,-0.675 -1.20001,-0.175 -2.40001,-0.375 -1.2,-0.2 -2.05,-0.825 -0.85,-0.625 -0.85,-1.725 0,-1.22501 1.2,-2.02501 1.225,-0.8 3.075,-0.8 2.12501,0 3.42501,1.15 l 0,-0.1 q 0,-0.7 0.525,-0.7 0.5,0 0.5,0.7 l 0,1.72501 q 0,0.675 -0.5,0.675 -0.45,0 -0.525,-0.575 -0.1,-0.85001 -1,-1.35001 -0.9,-0.5 -2.325,-0.5 -1.40001,0 -2.32501,0.55 -0.925,0.52501 -0.925,1.32501 0,0.75 0.85,1.15 0.85,0.4 2.05,0.575 1.20001,0.15 2.40001,0.4 1.2,0.225 2.05,0.95 0.85,0.7 0.85,1.9 0,1.425 -1.4,2.375 -1.375,0.925 -3.5,0.925 -2.40001,0 -3.92501,-1.35 l 0,0.275 q 0,0.675 -0.5,0.675 -0.525,0 -0.525,-0.675 l 0,-2.075 q 0,-0.675 0.525,-0.675 0.5,0 0.5,0.55 l 0,0.175 q 0,0.85 1.125,1.475 1.125,0.6 2.72501,0.6 1.65,0 2.75,-0.65 1.1,-0.65 1.1,-1.65 z"
       style="font-style:normal;font-variant:normal;font-weight:normal;font-stretch:normal;font-size:medium;line-height:125%;font-family:FreeMono;-inkscape-font-specification:FreeMono;letter-spacing:0px;word-spacing:0px;fill:none;fill-opacity:1;stroke:#000000;stroke-width:0.70866197;stroke-linecap:butt;stroke-linejoin:miter;stroke-miterlimit:4;stroke-dasharray:none;stroke-opacity:1"
       id="path4452"
       inkscape:connector-curvature="0" />
    <path
       d="m 160.73211,642.12937 5.5,0 q 0.675,0 0.675,0.5 0,0.525 -0.675,0.525 l -5.5,0 0,6.67501 q 0,0.95 0.75,1.525 0.75,0.575 2.05,0.575 1.05,0 2.225,-0.275 1.2,-0.3 1.925,-0.725 0.25,-0.15 0.4,-0.15 0.175,0 0.325,0.15 0.15001,0.15 0.15001,0.35 0,0.55 -1.70001,1.125 -1.675,0.55 -3.275,0.55 -1.775,0 -2.825,-0.825 -1.05,-0.85 -1.05,-2.25 l 0,-6.72501 -1.85,0 q -0.7,0 -0.7,-0.525 0,-0.5 0.7,-0.5 l 1.85,0 0,-2.975 q 0,-0.675 0.525,-0.675 0.5,0 0.5,0.675 l 0,2.975 z"
       style="font-style:normal;font-variant:normal;font-weight:normal;font-stretch:normal;font-size:medium;line-height:125%;font-family:FreeMono;-inkscape-font-specification:FreeMono;letter-spacing:0px;word-spacing:0px;fill:none;fill-opacity:1;stroke:#000000;stroke-width:0.70866197;stroke-linecap:butt;stroke-linejoin:miter;stroke-miterlimit:4;stroke-dasharray:none;stroke-opacity:1"
       id="path4454"
       inkscape:connector-curvature="0" />
    <path
       d="m 178.57236,641.77937 q 2.4,0 4.05,1.65 1.65001,1.62501 1.65001,4.00001 0,2.3 -1.67501,3.925 -1.675,1.6 -4.025,1.6 -2.375,0 -4.05,-1.625 -1.65,-1.625 -1.65,-3.975 0,-2.3 1.65,-3.92501 1.675,-1.65 4.05,-1.65 z m 0,1.025 q -1.95,0 -3.325,1.32501 -1.35,1.325 -1.35,3.225 0,1.9 1.35,3.25 1.375,1.325 3.325,1.325 1.925,0 3.3,-1.325 1.375,-1.325 1.375,-3.175 0,-1.975 -1.35,-3.3 -1.35,-1.32501 -3.325,-1.32501 z"
       style="font-style:normal;font-variant:normal;font-weight:normal;font-stretch:normal;font-size:medium;line-height:125%;font-family:FreeMono;-inkscape-font-specification:FreeMono;letter-spacing:0px;word-spacing:0px;fill:none;fill-opacity:1;stroke:#000000;stroke-width:0.70866197;stroke-linecap:butt;stroke-linejoin:miter;stroke-miterlimit:4;stroke-dasharray:none;stroke-opacity:1"
       id="path4456"
       inkscape:connector-curvature="0" />
    <path
       d="m 189.6626,642.12937 0,2.05001 q 1,-1.30001 2.025,-1.85001 1.025,-0.55 2.45,-0.55 2.325,0 3.87501,1.525 1.575,1.50001 1.575,3.72501 0,2.225 -1.575,3.75 -1.57501,1.525 -3.87501,1.525 -2.8,0 -4.475,-2.4 l 0,6.27501 2.45,0 q 0.675,0 0.675,0.5 0,0.525 -0.675,0.525 l -4.825,0 q -0.675,0 -0.675,-0.525 0,-0.5 0.675,-0.5 l 1.35,0 0,-13.02502 -1.35,0 q -0.675,0 -0.675,-0.525 0,-0.5 0.675,-0.5 l 2.375,0 z m 4.45,0.675 q -1.85,0 -3.15,1.25001 -1.3,1.225 -1.3,2.975 0,1.775 1.3,3.025 1.3,1.225 3.15,1.225 1.85,0 3.15001,-1.225 1.3,-1.225 1.3,-2.975 0,-1.825 -1.275,-3.05 -1.27501,-1.22501 -3.17501,-1.22501 z"
       style="font-style:normal;font-variant:normal;font-weight:normal;font-stretch:normal;font-size:medium;line-height:125%;font-family:FreeMono;-inkscape-font-specification:FreeMono;letter-spacing:0px;word-spacing:0px;fill:none;fill-opacity:1;stroke:#000000;stroke-width:0.70866197;stroke-linecap:butt;stroke-linejoin:miter;stroke-miterlimit:4;stroke-dasharray:none;stroke-opacity:1"
       id="path4458"
       inkscape:connector-curvature="0" />
    <path
       d="m 213.10286,636.72937 -8.17501,17.40001 q -0.225,0.45 -0.55,0.45 -0.2,0 -0.35,-0.15 -0.15,-0.15 -0.15,-0.325 0,-0.125 0.125,-0.4 l 8.17501,-17.40001 q 0.2,-0.45 0.55,-0.45 0.2,0 0.35,0.15 0.15,0.15 0.15,0.325 0,0.15 -0.125,0.4 z"
       style="font-style:normal;font-variant:normal;font-weight:normal;font-stretch:normal;font-size:medium;line-height:125%;font-family:FreeMono;-inkscape-font-specification:FreeMono;letter-spacing:0px;word-spacing:0px;fill:none;fill-opacity:1;stroke:#000000;stroke-width:0.70866197;stroke-linecap:butt;stroke-linejoin:miter;stroke-miterlimit:4;stroke-dasharray:none;stroke-opacity:1"
       id="path4460"
       inkscape:connector-curvature="0" />
    <path
       d="m 219.64309,642.12937 0,2.05001 q 1,-1.30001 2.025,-1.85001 1.025,-0.55 2.45,-0.55 2.32501,0 3.87501,1.525 1.575,1.50001 1.575,3.72501 0,2.225 -1.575,3.75 -1.575,1.525 -3.87501,1.525 -2.8,0 -4.475,-2.4 l 0,6.27501 2.45,0 q 0.675,0 0.675,0.5 0,0.525 -0.675,0.525 l -4.825,0 q -0.675,0 -0.675,-0.525 0,-0.5 0.675,-0.5 l 1.35,0 0,-13.02502 -1.35,0 q -0.675,0 -0.675,-0.525 0,-0.5 0.675,-0.5 l 2.375,0 z m 4.45,0.675 q -1.85,0 -3.15,1.25001 -1.3,1.225 -1.3,2.975 0,1.775 1.3,3.025 1.3,1.225 3.15,1.225 1.85001,0 3.15001,-1.225 1.3,-1.225 1.3,-2.975 0,-1.825 -1.275,-3.05 -1.275,-1.22501 -3.17501,-1.22501 z"
       style="font-style:normal;font-variant:normal;font-weight:normal;font-stretch:normal;font-size:medium;line-height:125%;font-family:FreeMono;-inkscape-font-specification:FreeMono;letter-spacing:0px;word-spacing:0px;fill:none;fill-opacity:1;stroke:#000000;stroke-width:0.70866197;stroke-linecap:butt;stroke-linejoin:miter;stroke-miterlimit:4;stroke-dasharray:none;stroke-opacity:1"
       id="path4462"
       inkscape:connector-curvature="0" />
    <path
       d="m 239.03334,637.45437 0,14.07501 4.00001,0 q 0.7,0 0.7,0.5 0,0.525 -0.7,0.525 l -9.02501,0 q -0.675,0 -0.675,-0.525 0,-0.5 0.675,-0.5 l 4,0 0,-13.05001 -2.925,0 q -0.675,0 -0.675,-0.525 0,-0.5 0.675,-0.5 l 3.95,0 z"
       style="font-style:normal;font-variant:normal;font-weight:normal;font-stretch:normal;font-size:medium;line-height:125%;font-family:FreeMono;-inkscape-font-specification:FreeMono;letter-spacing:0px;word-spacing:0px;fill:none;fill-opacity:1;stroke:#000000;stroke-width:0.70866197;stroke-linecap:butt;stroke-linejoin:miter;stroke-miterlimit:4;stroke-dasharray:none;stroke-opacity:1"
       id="path4464"
       inkscape:connector-curvature="0" />
    <path
       d="m 249.14859,643.10437 q 0,-0.55 1.7,-0.925 1.7,-0.4 2.65,-0.4 1.75,0 2.87501,0.875 1.15,0.875 1.15,2.20001 l 0,6.675 1.35,0 q 0.675,0 0.675,0.5 0,0.525 -0.675,0.525 l -2.375,0 0,-1.675 q -2.22501,2.075 -4.77501,2.075 -1.75,0 -2.825,-0.875 -1.075,-0.9 -1.075,-2.325 0,-1.625 1.45,-2.625 1.475,-1.025 3.825,-1.025 1.475,0 3.40001,0.525 l 0,-1.775 q 0,-0.925 -0.85,-1.47501 -0.85001,-0.575 -2.22501,-0.575 -1.15,0 -2.375,0.4 -1.225,0.4 -1.425,0.4 -0.2,0 -0.35,-0.15 -0.125,-0.15 -0.125,-0.35 z m 7.35001,6.65001 0,-2.25 q -1.50001,-0.375 -3.20001,-0.375 -1.975,0 -3.225,0.75 -1.225,0.725 -1.225,1.9 0,0.975 0.775,1.575 0.775,0.575 2.075,0.575 1.325,0 2.425,-0.5 1.125,-0.5 2.37501,-1.675 z"
       style="font-style:normal;font-variant:normal;font-weight:normal;font-stretch:normal;font-size:medium;line-height:125%;font-family:FreeMono;-inkscape-font-specification:FreeMono;letter-spacing:0px;word-spacing:0px;fill:none;fill-opacity:1;stroke:#000000;stroke-width:0.70866197;stroke-linecap:butt;stroke-linejoin:miter;stroke-miterlimit:4;stroke-dasharray:none;stroke-opacity:1"
       id="path4466"
       inkscape:connector-curvature="0" />
    <path
       d="m 268.06384,652.55438 -4.7,-9.40001 -0.4,0 q -0.675,0 -0.675,-0.525 0,-0.5 0.675,-0.5 l 2.875,0 q 0.675,0 0.675,0.5 0,0.525 -0.675,0.525 l -1.3,0 4.1,8.27501 4.02501,-8.27501 -1.35,0 q -0.67501,0 -0.67501,-0.525 0,-0.5 0.67501,-0.5 l 2.75,0 q 0.675,0 0.675,0.5 0,0.525 -0.675,0.525 l -0.35,0 -6.40001,13.02502 1.625,0 q 0.675,0 0.675,0.5 0,0.525 -0.675,0.525 l -5.825,0 q -0.675,0 -0.675,-0.525 0,-0.5 0.675,-0.5 l 3.175,0 1.775,-3.62501 z"
       style="font-style:normal;font-variant:normal;font-weight:normal;font-stretch:normal;font-size:medium;line-height:125%;font-family:FreeMono;-inkscape-font-specification:FreeMono;letter-spacing:0px;word-spacing:0px;fill:none;fill-opacity:1;stroke:#000000;stroke-width:0.70866197;stroke-linecap:butt;stroke-linejoin:miter;stroke-miterlimit:4;stroke-dasharray:none;stroke-opacity:1"
       id="path4468"
       inkscape:connector-curvature="0" />
    <path
       d="m 96.96366,788.8284 -10.40001,0 q 0.275,1.975 1.65,3.175 1.37501,1.17501 3.40001,1.17501 1.175,0 2.4,-0.37501 1.225,-0.375 1.975,-0.975 0.25,-0.175 0.4,-0.175 0.2,0 0.325,0.15 0.15,0.15 0.15,0.35 0,0.65 -1.8,1.35001 -1.775,0.7 -3.475,0.7 -2.52501,0 -4.30001,-1.70001 -1.75,-1.7 -1.75,-4.125 0,-2.275 1.65,-3.8 1.65,-1.55 4.05001,-1.55 2.525,0 4.125,1.6 1.6,1.575 1.6,4.2 z m -10.40001,-1.025 9.35001,0 q -0.3,-1.7 -1.575,-2.725 -1.275,-1.025 -3.1,-1.025 -1.825,0 -3.07501,1.025 -1.25,1 -1.6,2.725 z"
       style="font-style:normal;font-variant:normal;font-weight:normal;font-stretch:normal;font-size:medium;line-height:125%;font-family:FreeMono;-inkscape-font-specification:FreeMono;letter-spacing:0px;word-spacing:0px;fill:none;fill-opacity:1;stroke:#000000;stroke-width:0.70866197;stroke-linecap:butt;stroke-linejoin:miter;stroke-miterlimit:4;stroke-dasharray:none;stroke-opacity:1"
       id="path4471"
       inkscape:connector-curvature="0" />
    <path
       d="m 111.95391,780.02839 q -0.05,0 -0.625,-0.075 -0.575,-0.075 -1.4,-0.15 -0.8,-0.075 -1.425,-0.075 -1.22501,0 -2.00001,0.6 -0.775,0.575 -0.775,1.52501 l 0,1.525 4.72501,0 q 0.675,0 0.675,0.5 0,0.525 -0.675,0.525 l -4.72501,0 0,8.375 4.45001,0 q 0.675,0 0.675,0.50001 0,0.525 -0.675,0.525 l -7.92501,0 q -0.675,0 -0.675,-0.525 0,-0.50001 0.675,-0.50001 l 2.45,0 0,-8.375 -2.2,0 q -0.675,0 -0.675,-0.525 0,-0.5 0.675,-0.5 l 2.2,0 0,-1.525 q 0,-1.37501 1.075,-2.25001 1.1,-0.9 2.77501,-0.9 1.75,0 3.475,0.325 0.45,0.125 0.45,0.5 0,0.5 -0.525,0.5 z"
       style="font-style:normal;font-variant:normal;font-weight:normal;font-stretch:normal;font-size:medium;line-height:125%;font-family:FreeMono;-inkscape-font-specification:FreeMono;letter-spacing:0px;word-spacing:0px;fill:none;fill-opacity:1;stroke:#000000;stroke-width:0.70866197;stroke-linecap:butt;stroke-linejoin:miter;stroke-miterlimit:4;stroke-dasharray:none;stroke-opacity:1"
       id="path4473"
       inkscape:connector-curvature="0" />
    <path
       d="m 126.94416,780.02839 q -0.05,0 -0.62501,-0.075 -0.575,-0.075 -1.4,-0.15 -0.8,-0.075 -1.425,-0.075 -1.225,0 -2,0.6 -0.775,0.575 -0.775,1.52501 l 0,1.525 4.725,0 q 0.675,0 0.675,0.5 0,0.525 -0.675,0.525 l -4.725,0 0,8.375 4.45,0 q 0.675,0 0.675,0.50001 0,0.525 -0.675,0.525 l -7.925,0 q -0.675,0 -0.675,-0.525 0,-0.50001 0.675,-0.50001 l 2.45,0 0,-8.375 -2.2,0 q -0.675,0 -0.675,-0.525 0,-0.5 0.675,-0.5 l 2.2,0 0,-1.525 q 0,-1.37501 1.075,-2.25001 1.1,-0.9 2.775,-0.9 1.75,0 3.47501,0.325 0.45,0.125 0.45,0.5 0,0.5 -0.525,0.5 z"
       style="font-style:normal;font-variant:normal;font-weight:normal;font-stretch:normal;font-size:medium;line-height:125%;font-family:FreeMono;-inkscape-font-specification:FreeMono;letter-spacing:0px;word-spacing:0px;fill:none;fill-opacity:1;stroke:#000000;stroke-width:0.70866197;stroke-linecap:butt;stroke-linejoin:miter;stroke-miterlimit:4;stroke-dasharray:none;stroke-opacity:1"
       id="path4475"
       inkscape:connector-curvature="0" />
    <path
       d="m 132.05939,784.3534 q 0,-0.55 1.70001,-0.925 1.7,-0.4 2.65,-0.4 1.75,0 2.875,0.875 1.15,0.875 1.15,2.2 l 0,6.675 1.35,0 q 0.675,0 0.675,0.50001 0,0.525 -0.675,0.525 l -2.375,0 0,-1.67501 q -2.225,2.07501 -4.775,2.07501 -1.75,0 -2.82501,-0.875 -1.075,-0.90001 -1.075,-2.32501 0,-1.625 1.45,-2.625 1.47501,-1.025 3.82501,-1.025 1.475,0 3.4,0.525 l 0,-1.775 q 0,-0.925 -0.85,-1.475 -0.85,-0.575 -2.225,-0.575 -1.15,0 -2.375,0.4 -1.225,0.4 -1.42501,0.4 -0.2,0 -0.35,-0.15 -0.125,-0.15 -0.125,-0.35 z m 7.35001,6.65 0,-2.25 q -1.5,-0.375 -3.2,-0.375 -1.975,0 -3.225,0.75 -1.22501,0.725 -1.22501,1.9 0,0.975 0.775,1.575 0.77501,0.57501 2.07501,0.57501 1.325,0 2.425,-0.50001 1.125,-0.5 2.375,-1.675 z"
       style="font-style:normal;font-variant:normal;font-weight:normal;font-stretch:normal;font-size:medium;line-height:125%;font-family:FreeMono;-inkscape-font-specification:FreeMono;letter-spacing:0px;word-spacing:0px;fill:none;fill-opacity:1;stroke:#000000;stroke-width:0.70866197;stroke-linecap:butt;stroke-linejoin:miter;stroke-miterlimit:4;stroke-dasharray:none;stroke-opacity:1"
       id="path4477"
       inkscape:connector-curvature="0" />
    <path
       d="m 157.29965,791.6034 q 0,0.225 -0.425,0.65 -0.425,0.4 -1.125,0.85001 -0.675,0.45 -1.8,0.775 -1.125,0.325 -2.30001,0.325 -2.45,0 -4.05,-1.55001 -1.575,-1.55 -1.575,-3.95 0,-2.475 1.625,-4.075 1.625,-1.6 4.125,-1.6 2.32501,0 3.90001,1.375 l 0,-0.325 q 0,-0.7 0.525,-0.7 0.5,0 0.5,0.7 l 0,2.275 q 0,0.675 -0.5,0.675 -0.45,0 -0.525,-0.6 -0.075,-1 -1.25,-1.675 -1.15,-0.7 -2.72501,-0.7 -2.075,0 -3.375,1.3 -1.275,1.275 -1.275,3.325 0,1.975 1.3,3.25 1.3,1.25001 3.35,1.25001 2.72501,0 4.67501,-1.80001 0.25,-0.25 0.45,-0.25 0.2,0 0.325,0.15 0.15,0.125 0.15,0.325 z"
       style="font-style:normal;font-variant:normal;font-weight:normal;font-stretch:normal;font-size:medium;line-height:125%;font-family:FreeMono;-inkscape-font-specification:FreeMono;letter-spacing:0px;word-spacing:0px;fill:none;fill-opacity:1;stroke:#000000;stroke-width:0.70866197;stroke-linecap:butt;stroke-linejoin:miter;stroke-miterlimit:4;stroke-dasharray:none;stroke-opacity:1"
       id="path4479"
       inkscape:connector-curvature="0" />
    <path
       d="m 171.91489,788.8284 -10.4,0 q 0.275,1.975 1.65,3.175 1.375,1.17501 3.4,1.17501 1.175,0 2.4,-0.37501 1.225,-0.375 1.975,-0.975 0.25,-0.175 0.4,-0.175 0.2,0 0.325,0.15 0.15,0.15 0.15,0.35 0,0.65 -1.8,1.35001 -1.775,0.7 -3.475,0.7 -2.525,0 -4.3,-1.70001 -1.75001,-1.7 -1.75001,-4.125 0,-2.275 1.65001,-3.8 1.65,-1.55 4.05,-1.55 2.525,0 4.125,1.6 1.6,1.575 1.6,4.2 z m -10.4,-1.025 9.35,0 q -0.3,-1.7 -1.575,-2.725 -1.275,-1.025 -3.1,-1.025 -1.825,0 -3.075,1.025 -1.25,1 -1.6,2.725 z"
       style="font-style:normal;font-variant:normal;font-weight:normal;font-stretch:normal;font-size:medium;line-height:125%;font-family:FreeMono;-inkscape-font-specification:FreeMono;letter-spacing:0px;word-spacing:0px;fill:none;fill-opacity:1;stroke:#000000;stroke-width:0.70866197;stroke-linecap:butt;stroke-linejoin:miter;stroke-miterlimit:4;stroke-dasharray:none;stroke-opacity:1"
       id="path4481"
       inkscape:connector-curvature="0" />
    <path
       d="m 193.54538,783.3784 5.5,0 q 0.675,0 0.675,0.5 0,0.525 -0.675,0.525 l -5.5,0 0,6.675 q 0,0.95 0.75,1.525 0.75,0.57501 2.05,0.57501 1.05,0 2.225,-0.275 1.2,-0.30001 1.925,-0.72501 0.25001,-0.15 0.40001,-0.15 0.175,0 0.325,0.15 0.15,0.15 0.15,0.35 0,0.55001 -1.70001,1.12501 -1.675,0.55 -3.275,0.55 -1.775,0 -2.825,-0.825 -1.05,-0.85001 -1.05,-2.25001 l 0,-6.725 -1.85,0 q -0.7,0 -0.7,-0.525 0,-0.5 0.7,-0.5 l 1.85,0 0,-2.97501 q 0,-0.675 0.525,-0.675 0.5,0 0.5,0.675 l 0,2.97501 z"
       style="font-style:normal;font-variant:normal;font-weight:normal;font-stretch:normal;font-size:medium;line-height:125%;font-family:FreeMono;-inkscape-font-specification:FreeMono;letter-spacing:0px;word-spacing:0px;fill:none;fill-opacity:1;stroke:#000000;stroke-width:0.70866197;stroke-linecap:butt;stroke-linejoin:miter;stroke-miterlimit:4;stroke-dasharray:none;stroke-opacity:1"
       id="path4483"
       inkscape:connector-curvature="0" />
    <path
       d="m 211.38563,783.0284 q 2.4,0 4.05,1.65 1.65001,1.625 1.65001,4 0,2.3 -1.67501,3.925 -1.675,1.60001 -4.025,1.60001 -2.375,0 -4.05,-1.62501 -1.65,-1.625 -1.65,-3.975 0,-2.3 1.65,-3.925 1.675,-1.65 4.05,-1.65 z m 0,1.025 q -1.95,0 -3.325,1.325 -1.35,1.325 -1.35,3.225 0,1.9 1.35,3.25 1.375,1.32501 3.325,1.32501 1.925,0 3.3,-1.32501 1.37501,-1.325 1.37501,-3.175 0,-1.975 -1.35001,-3.3 -1.35,-1.325 -3.325,-1.325 z"
       style="font-style:normal;font-variant:normal;font-weight:normal;font-stretch:normal;font-size:medium;line-height:125%;font-family:FreeMono;-inkscape-font-specification:FreeMono;letter-spacing:0px;word-spacing:0px;fill:none;fill-opacity:1;stroke:#000000;stroke-width:0.70866197;stroke-linecap:butt;stroke-linejoin:miter;stroke-miterlimit:4;stroke-dasharray:none;stroke-opacity:1"
       id="path4485"
       inkscape:connector-curvature="0" />
    <path
       d="m 229.85088,793.80341 0,-1.65001 q -2.10001,2.05001 -4.55001,2.05001 -1.5,0 -2.425,-0.9 -0.9,-0.90001 -0.9,-2.37501 l 0,-6.525 -1.35,0 q -0.675,0 -0.675,-0.525 0,-0.5 0.675,-0.5 l 2.375,0 0,7.55 q 0,0.95 0.65,1.6 0.675,0.65001 1.625,0.65001 2.5,0 4.57501,-2.25001 l 0,-6.525 -1.85001,0 q -0.7,0 -0.7,-0.525 0,-0.5 0.7,-0.5 l 2.87501,0 0,9.4 0.85,0 q 0.675,0 0.675,0.50001 0,0.525 -0.675,0.525 l -1.875,0 z"
       style="font-style:normal;font-variant:normal;font-weight:normal;font-stretch:normal;font-size:medium;line-height:125%;font-family:FreeMono;-inkscape-font-specification:FreeMono;letter-spacing:0px;word-spacing:0px;fill:none;fill-opacity:1;stroke:#000000;stroke-width:0.70866197;stroke-linecap:butt;stroke-linejoin:miter;stroke-miterlimit:4;stroke-dasharray:none;stroke-opacity:1"
       id="path4487"
       inkscape:connector-curvature="0" />
    <path
       d="m 238.51612,783.3784 5.5,0 q 0.67501,0 0.67501,0.5 0,0.525 -0.67501,0.525 l -5.5,0 0,6.675 q 0,0.95 0.75,1.525 0.75,0.57501 2.05,0.57501 1.05,0 2.225,-0.275 1.20001,-0.30001 1.92501,-0.72501 0.25,-0.15 0.4,-0.15 0.175,0 0.325,0.15 0.15,0.15 0.15,0.35 0,0.55001 -1.7,1.12501 -1.67501,0.55 -3.27501,0.55 -1.775,0 -2.825,-0.825 -1.05,-0.85001 -1.05,-2.25001 l 0,-6.725 -1.85,0 q -0.7,0 -0.7,-0.525 0,-0.5 0.7,-0.5 l 1.85,0 0,-2.97501 q 0,-0.675 0.525,-0.675 0.5,0 0.5,0.675 l 0,2.97501 z"
       style="font-style:normal;font-variant:normal;font-weight:normal;font-stretch:normal;font-size:medium;line-height:125%;font-family:FreeMono;-inkscape-font-specification:FreeMono;letter-spacing:0px;word-spacing:0px;fill:none;fill-opacity:1;stroke:#000000;stroke-width:0.70866197;stroke-linecap:butt;stroke-linejoin:miter;stroke-miterlimit:4;stroke-dasharray:none;stroke-opacity:1"
       id="path4489"
       inkscape:connector-curvature="0" />
    <path
       d="m 272.29662,779.72839 -0.45,8.15001 q -0.05,0.7 -0.525,0.7 -0.45,0 -0.5,-0.7 l -0.45,-8.15001 q 0,-0.05 -0.025,-0.2 0,-0.15 0,-0.2 0,-0.425 0.275,-0.7 0.3,-0.275 0.725,-0.275 0.4,0 0.675,0.275 0.3,0.275 0.3,0.7 0,0.025 0,0.075 0,0.05 -0.025,0.15 0,0.1 0,0.175 z m -1.125,11.95001 0.325,0 q 0.575,0 0.95,0.375 0.4,0.35 0.4,0.87501 0,0.525 -0.4,0.875 -0.375,0.375 -0.95,0.375 l -0.325,0 q -0.55,0 -0.95,-0.375 -0.375,-0.35 -0.375,-0.875 0,-0.52501 0.375,-0.87501 0.4,-0.375 0.95,-0.375 z"
       style="font-style:normal;font-variant:normal;font-weight:normal;font-stretch:normal;font-size:medium;line-height:125%;font-family:FreeMono;-inkscape-font-specification:FreeMono;letter-spacing:0px;word-spacing:0px;fill:none;fill-opacity:1;stroke:#000000;stroke-width:0.70866197;stroke-linecap:butt;stroke-linejoin:miter;stroke-miterlimit:4;stroke-dasharray:none;stroke-opacity:1"
       id="path4491"
       inkscape:connector-curvature="0" />
  </g>
</svg>
